<?xml version="1.0" encoding="utf-8" standalone="no"?>
<!DOCTYPE svg PUBLIC "-//W3C//DTD SVG 1.1//EN"
  "http://www.w3.org/Graphics/SVG/1.1/DTD/svg11.dtd">
<svg xmlns:xlink="http://www.w3.org/1999/xlink" width="432pt" height="432pt" viewBox="0 0 432 432" xmlns="http://www.w3.org/2000/svg" version="1.1">
 <metadata>
  <rdf:RDF xmlns:dc="http://purl.org/dc/elements/1.1/" xmlns:cc="http://creativecommons.org/ns#" xmlns:rdf="http://www.w3.org/1999/02/22-rdf-syntax-ns#">
   <cc:Work>
    <dc:type rdf:resource="http://purl.org/dc/dcmitype/StillImage"/>
    <dc:date>2025-12-11T10:38:33.542166</dc:date>
    <dc:format>image/svg+xml</dc:format>
    <dc:creator>
     <cc:Agent>
      <dc:title>Matplotlib v3.8.0, https://matplotlib.org/</dc:title>
     </cc:Agent>
    </dc:creator>
   </cc:Work>
  </rdf:RDF>
 </metadata>
 <defs>
  <style type="text/css">*{stroke-linejoin: round; stroke-linecap: butt}</style>
 </defs>
 <g id="figure_1">
  <g id="patch_1">
   <path d="M 0 432 
L 432 432 
L 432 0 
L 0 0 
L 0 432 
z
" style="fill: none"/>
  </g>
  <g id="patch_2">
   <path d="M 55.08 384.48 
L 387.72 384.48 
L 387.72 51.84 
L 55.08 51.84 
L 55.08 384.48 
z
" style="fill: none"/>
  </g>
  <g id="pane3d_1">
   <g id="patch_3">
    <path d="M 225.895135 235.285977 
L 374.9779 287.959854 
L 379.601108 137.065913 
L 225.895135 94.099938 
" style="fill: #f2f2f2; opacity: 0.5; stroke: #f2f2f2; stroke-linejoin: miter"/>
   </g>
  </g>
  <g id="pane3d_2">
   <g id="patch_4">
    <path d="M 225.895135 235.285977 
L 76.81237 287.959854 
L 72.189163 137.065913 
L 225.895135 94.099938 
" style="fill: #e6e6e6; opacity: 0.5; stroke: #e6e6e6; stroke-linejoin: miter"/>
   </g>
  </g>
  <g id="pane3d_3">
   <g id="patch_5">
    <path d="M 225.895135 235.285977 
L 76.81237 287.959854 
L 225.895135 349.535246 
L 374.9779 287.959854 
" style="fill: #ececec; opacity: 0.5; stroke: #ececec; stroke-linejoin: miter"/>
   </g>
  </g>
  <g id="grid3d_1">
   <g id="Line3DCollection_1">
    <path d="M 366.186394 291.590994 
L 217.053119 238.410035 
L 216.798101 96.642864 
" style="fill: none; stroke: #b0b0b0; stroke-width: 0.8"/>
    <path d="M 303.458104 317.499549 
L 154.148745 260.63539 
L 152.009729 114.753387 
" style="fill: none; stroke: #b0b0b0; stroke-width: 0.8"/>
    <path d="M 236.128819 345.308445 
L 86.988171 284.364543 
L 82.702433 134.127102 
" style="fill: none; stroke: #b0b0b0; stroke-width: 0.8"/>
   </g>
  </g>
  <g id="grid3d_2">
   <g id="Line3DCollection_2">
    <path d="M 234.992169 96.642864 
L 234.737151 238.410035 
L 85.603876 291.590994 
" style="fill: none; stroke: #b0b0b0; stroke-width: 0.8"/>
    <path d="M 299.780541 114.753387 
L 297.641526 260.63539 
L 148.332167 317.499549 
" style="fill: none; stroke: #b0b0b0; stroke-width: 0.8"/>
    <path d="M 369.087837 134.127102 
L 364.8021 284.364543 
L 215.661452 345.308445 
" style="fill: none; stroke: #b0b0b0; stroke-width: 0.8"/>
   </g>
  </g>
  <g id="grid3d_3">
   <g id="Line3DCollection_3">
    <path d="M 76.722633 285.030985 
L 225.895135 232.539517 
L 375.067637 285.030985 
" style="fill: none; stroke: #b0b0b0; stroke-width: 0.8"/>
    <path d="M 74.536062 213.664865 
L 225.895135 165.691813 
L 377.254209 213.664865 
" style="fill: none; stroke: #b0b0b0; stroke-width: 0.8"/>
    <path d="M 72.284435 140.175451 
L 225.895135 97.003047 
L 379.505835 140.175451 
" style="fill: none; stroke: #b0b0b0; stroke-width: 0.8"/>
   </g>
  </g>
  <g id="axis3d_1">
   <g id="line2d_1">
    <path d="M 374.9779 287.959854 
L 225.895135 349.535246 
" style="fill: none; stroke: #000000; stroke-width: 0.8; stroke-linecap: square"/>
   </g>
   <g id="xtick_1">
    <g id="line2d_2">
     <path d="M 364.900715 291.13252 
L 368.762591 292.509666 
" style="fill: none; stroke: #000000; stroke-width: 0.8; stroke-linecap: square"/>
    </g>
    <g id="text_1">
     <!-- 0 -->
     <g transform="translate(373.431219 312.795208) scale(0.1 -0.1)">
      <defs>
       <path id="DejaVuSans-30" d="M 2034 4250 
Q 1547 4250 1301 3770 
Q 1056 3291 1056 2328 
Q 1056 1369 1301 889 
Q 1547 409 2034 409 
Q 2525 409 2770 889 
Q 3016 1369 3016 2328 
Q 3016 3291 2770 3770 
Q 2525 4250 2034 4250 
z
M 2034 4750 
Q 2819 4750 3233 4129 
Q 3647 3509 3647 2328 
Q 3647 1150 3233 529 
Q 2819 -91 2034 -91 
Q 1250 -91 836 529 
Q 422 1150 422 2328 
Q 422 3509 836 4129 
Q 1250 4750 2034 4750 
z
" transform="scale(0.015625)"/>
      </defs>
      <use xlink:href="#DejaVuSans-30"/>
     </g>
    </g>
   </g>
   <g id="xtick_2">
    <g id="line2d_3">
     <path d="M 302.167628 317.008074 
L 306.044083 318.484414 
" style="fill: none; stroke: #000000; stroke-width: 0.8; stroke-linecap: square"/>
    </g>
    <g id="text_2">
     <!-- 1 -->
     <g transform="translate(310.865055 339.272568) scale(0.1 -0.1)">
      <defs>
       <path id="DejaVuSans-31" d="M 794 531 
L 1825 531 
L 1825 4091 
L 703 3866 
L 703 4441 
L 1819 4666 
L 2450 4666 
L 2450 531 
L 3481 531 
L 3481 0 
L 794 0 
L 794 531 
z
" transform="scale(0.015625)"/>
      </defs>
      <use xlink:href="#DejaVuSans-31"/>
     </g>
    </g>
   </g>
   <g id="xtick_3">
    <g id="line2d_4">
     <path d="M 234.836287 344.780273 
L 238.719104 346.366923 
" style="fill: none; stroke: #000000; stroke-width: 0.8; stroke-linecap: square"/>
    </g>
    <g id="text_3">
     <!-- 2 -->
     <g transform="translate(243.694017 367.698664) scale(0.1 -0.1)">
      <defs>
       <path id="DejaVuSans-32" d="M 1228 531 
L 3431 531 
L 3431 0 
L 469 0 
L 469 531 
Q 828 903 1448 1529 
Q 2069 2156 2228 2338 
Q 2531 2678 2651 2914 
Q 2772 3150 2772 3378 
Q 2772 3750 2511 3984 
Q 2250 4219 1831 4219 
Q 1534 4219 1204 4116 
Q 875 4013 500 3803 
L 500 4441 
Q 881 4594 1212 4672 
Q 1544 4750 1819 4750 
Q 2544 4750 2975 4387 
Q 3406 4025 3406 3419 
Q 3406 3131 3298 2873 
Q 3191 2616 2906 2266 
Q 2828 2175 2409 1742 
Q 1991 1309 1228 531 
z
" transform="scale(0.015625)"/>
      </defs>
      <use xlink:href="#DejaVuSans-32"/>
     </g>
    </g>
   </g>
   <g id="text_4">
    <!-- Shift -->
    <g transform="translate(317.115097 355.323139) rotate(-22.442007) scale(0.1 -0.1)">
     <defs>
      <path id="DejaVuSans-53" d="M 3425 4513 
L 3425 3897 
Q 3066 4069 2747 4153 
Q 2428 4238 2131 4238 
Q 1616 4238 1336 4038 
Q 1056 3838 1056 3469 
Q 1056 3159 1242 3001 
Q 1428 2844 1947 2747 
L 2328 2669 
Q 3034 2534 3370 2195 
Q 3706 1856 3706 1288 
Q 3706 609 3251 259 
Q 2797 -91 1919 -91 
Q 1588 -91 1214 -16 
Q 841 59 441 206 
L 441 856 
Q 825 641 1194 531 
Q 1563 422 1919 422 
Q 2459 422 2753 634 
Q 3047 847 3047 1241 
Q 3047 1584 2836 1778 
Q 2625 1972 2144 2069 
L 1759 2144 
Q 1053 2284 737 2584 
Q 422 2884 422 3419 
Q 422 4038 858 4394 
Q 1294 4750 2059 4750 
Q 2388 4750 2728 4690 
Q 3069 4631 3425 4513 
z
" transform="scale(0.015625)"/>
      <path id="DejaVuSans-68" d="M 3513 2113 
L 3513 0 
L 2938 0 
L 2938 2094 
Q 2938 2591 2744 2837 
Q 2550 3084 2163 3084 
Q 1697 3084 1428 2787 
Q 1159 2491 1159 1978 
L 1159 0 
L 581 0 
L 581 4863 
L 1159 4863 
L 1159 2956 
Q 1366 3272 1645 3428 
Q 1925 3584 2291 3584 
Q 2894 3584 3203 3211 
Q 3513 2838 3513 2113 
z
" transform="scale(0.015625)"/>
      <path id="DejaVuSans-69" d="M 603 3500 
L 1178 3500 
L 1178 0 
L 603 0 
L 603 3500 
z
M 603 4863 
L 1178 4863 
L 1178 4134 
L 603 4134 
L 603 4863 
z
" transform="scale(0.015625)"/>
      <path id="DejaVuSans-66" d="M 2375 4863 
L 2375 4384 
L 1825 4384 
Q 1516 4384 1395 4259 
Q 1275 4134 1275 3809 
L 1275 3500 
L 2222 3500 
L 2222 3053 
L 1275 3053 
L 1275 0 
L 697 0 
L 697 3053 
L 147 3053 
L 147 3500 
L 697 3500 
L 697 3744 
Q 697 4328 969 4595 
Q 1241 4863 1831 4863 
L 2375 4863 
z
" transform="scale(0.015625)"/>
      <path id="DejaVuSans-74" d="M 1172 4494 
L 1172 3500 
L 2356 3500 
L 2356 3053 
L 1172 3053 
L 1172 1153 
Q 1172 725 1289 603 
Q 1406 481 1766 481 
L 2356 481 
L 2356 0 
L 1766 0 
Q 1100 0 847 248 
Q 594 497 594 1153 
L 594 3053 
L 172 3053 
L 172 3500 
L 594 3500 
L 594 4494 
L 1172 4494 
z
" transform="scale(0.015625)"/>
     </defs>
     <use xlink:href="#DejaVuSans-53"/>
     <use xlink:href="#DejaVuSans-68" x="63.476562"/>
     <use xlink:href="#DejaVuSans-69" x="126.855469"/>
     <use xlink:href="#DejaVuSans-66" x="154.638672"/>
     <use xlink:href="#DejaVuSans-74" x="188.09375"/>
    </g>
   </g>
  </g>
  <g id="axis3d_2">
   <g id="line2d_5">
    <path d="M 76.81237 287.959854 
L 225.895135 349.535246 
" style="fill: none; stroke: #000000; stroke-width: 0.8; stroke-linecap: square"/>
   </g>
   <g id="xtick_4">
    <g id="line2d_6">
     <path d="M 86.889556 291.13252 
L 83.027679 292.509666 
" style="fill: none; stroke: #000000; stroke-width: 0.8; stroke-linecap: square"/>
    </g>
    <g id="text_5">
     <!-- 0 -->
     <g transform="translate(71.996551 312.795208) scale(0.1 -0.1)">
      <use xlink:href="#DejaVuSans-30"/>
     </g>
    </g>
   </g>
   <g id="xtick_5">
    <g id="line2d_7">
     <path d="M 149.622642 317.008074 
L 145.746187 318.484414 
" style="fill: none; stroke: #000000; stroke-width: 0.8; stroke-linecap: square"/>
    </g>
    <g id="text_6">
     <!-- 1 -->
     <g transform="translate(134.562715 339.272568) scale(0.1 -0.1)">
      <use xlink:href="#DejaVuSans-31"/>
     </g>
    </g>
   </g>
   <g id="xtick_6">
    <g id="line2d_8">
     <path d="M 216.953984 344.780273 
L 213.071167 346.366923 
" style="fill: none; stroke: #000000; stroke-width: 0.8; stroke-linecap: square"/>
    </g>
    <g id="text_7">
     <!-- 2 -->
     <g transform="translate(201.733753 367.698664) scale(0.1 -0.1)">
      <use xlink:href="#DejaVuSans-32"/>
     </g>
    </g>
   </g>
   <g id="text_8">
    <!-- Angle -->
    <g transform="translate(111.019731 345.552773) rotate(-337.557993) scale(0.1 -0.1)">
     <defs>
      <path id="DejaVuSans-41" d="M 2188 4044 
L 1331 1722 
L 3047 1722 
L 2188 4044 
z
M 1831 4666 
L 2547 4666 
L 4325 0 
L 3669 0 
L 3244 1197 
L 1141 1197 
L 716 0 
L 50 0 
L 1831 4666 
z
" transform="scale(0.015625)"/>
      <path id="DejaVuSans-6e" d="M 3513 2113 
L 3513 0 
L 2938 0 
L 2938 2094 
Q 2938 2591 2744 2837 
Q 2550 3084 2163 3084 
Q 1697 3084 1428 2787 
Q 1159 2491 1159 1978 
L 1159 0 
L 581 0 
L 581 3500 
L 1159 3500 
L 1159 2956 
Q 1366 3272 1645 3428 
Q 1925 3584 2291 3584 
Q 2894 3584 3203 3211 
Q 3513 2838 3513 2113 
z
" transform="scale(0.015625)"/>
      <path id="DejaVuSans-67" d="M 2906 1791 
Q 2906 2416 2648 2759 
Q 2391 3103 1925 3103 
Q 1463 3103 1205 2759 
Q 947 2416 947 1791 
Q 947 1169 1205 825 
Q 1463 481 1925 481 
Q 2391 481 2648 825 
Q 2906 1169 2906 1791 
z
M 3481 434 
Q 3481 -459 3084 -895 
Q 2688 -1331 1869 -1331 
Q 1566 -1331 1297 -1286 
Q 1028 -1241 775 -1147 
L 775 -588 
Q 1028 -725 1275 -790 
Q 1522 -856 1778 -856 
Q 2344 -856 2625 -561 
Q 2906 -266 2906 331 
L 2906 616 
Q 2728 306 2450 153 
Q 2172 0 1784 0 
Q 1141 0 747 490 
Q 353 981 353 1791 
Q 353 2603 747 3093 
Q 1141 3584 1784 3584 
Q 2172 3584 2450 3431 
Q 2728 3278 2906 2969 
L 2906 3500 
L 3481 3500 
L 3481 434 
z
" transform="scale(0.015625)"/>
      <path id="DejaVuSans-6c" d="M 603 4863 
L 1178 4863 
L 1178 0 
L 603 0 
L 603 4863 
z
" transform="scale(0.015625)"/>
      <path id="DejaVuSans-65" d="M 3597 1894 
L 3597 1613 
L 953 1613 
Q 991 1019 1311 708 
Q 1631 397 2203 397 
Q 2534 397 2845 478 
Q 3156 559 3463 722 
L 3463 178 
Q 3153 47 2828 -22 
Q 2503 -91 2169 -91 
Q 1331 -91 842 396 
Q 353 884 353 1716 
Q 353 2575 817 3079 
Q 1281 3584 2069 3584 
Q 2775 3584 3186 3129 
Q 3597 2675 3597 1894 
z
M 3022 2063 
Q 3016 2534 2758 2815 
Q 2500 3097 2075 3097 
Q 1594 3097 1305 2825 
Q 1016 2553 972 2059 
L 3022 2063 
z
" transform="scale(0.015625)"/>
     </defs>
     <use xlink:href="#DejaVuSans-41"/>
     <use xlink:href="#DejaVuSans-6e" x="68.408203"/>
     <use xlink:href="#DejaVuSans-67" x="131.787109"/>
     <use xlink:href="#DejaVuSans-6c" x="195.263672"/>
     <use xlink:href="#DejaVuSans-65" x="223.046875"/>
    </g>
   </g>
  </g>
  <g id="axis3d_3">
   <g id="line2d_9">
    <path d="M 76.81237 287.959854 
L 72.189163 137.065913 
" style="fill: none; stroke: #000000; stroke-width: 0.8; stroke-linecap: square"/>
   </g>
   <g id="xtick_7">
    <g id="line2d_10">
     <path d="M 78.008247 284.578598 
L 74.146588 285.937455 
" style="fill: none; stroke: #000000; stroke-width: 0.8; stroke-linecap: square"/>
    </g>
    <g id="text_9">
     <!-- 50 -->
     <g transform="translate(50.556569 292.629423) scale(0.1 -0.1)">
      <defs>
       <path id="DejaVuSans-35" d="M 691 4666 
L 3169 4666 
L 3169 4134 
L 1269 4134 
L 1269 2991 
Q 1406 3038 1543 3061 
Q 1681 3084 1819 3084 
Q 2600 3084 3056 2656 
Q 3513 2228 3513 1497 
Q 3513 744 3044 326 
Q 2575 -91 1722 -91 
Q 1428 -91 1123 -41 
Q 819 9 494 109 
L 494 744 
Q 775 591 1075 516 
Q 1375 441 1709 441 
Q 2250 441 2565 725 
Q 2881 1009 2881 1497 
Q 2881 1984 2565 2268 
Q 2250 2553 1709 2553 
Q 1456 2553 1204 2497 
Q 953 2441 691 2322 
L 691 4666 
z
" transform="scale(0.015625)"/>
      </defs>
      <use xlink:href="#DejaVuSans-35"/>
      <use xlink:href="#DejaVuSans-30" x="63.623047"/>
     </g>
    </g>
   </g>
   <g id="xtick_8">
    <g id="line2d_11">
     <path d="M 75.841891 213.250984 
L 71.919438 214.4942 
" style="fill: none; stroke: #000000; stroke-width: 0.8; stroke-linecap: square"/>
    </g>
    <g id="text_10">
     <!-- 75 -->
     <g transform="translate(48.079716 221.263302) scale(0.1 -0.1)">
      <defs>
       <path id="DejaVuSans-37" d="M 525 4666 
L 3525 4666 
L 3525 4397 
L 1831 0 
L 1172 0 
L 2766 4134 
L 525 4134 
L 525 4666 
z
" transform="scale(0.015625)"/>
      </defs>
      <use xlink:href="#DejaVuSans-37"/>
      <use xlink:href="#DejaVuSans-35" x="63.623047"/>
     </g>
    </g>
   </g>
   <g id="xtick_9">
    <g id="line2d_12">
     <path d="M 73.611123 139.802584 
L 69.62594 140.922623 
" style="fill: none; stroke: #000000; stroke-width: 0.8; stroke-linecap: square"/>
    </g>
    <g id="text_11">
     <!-- 100 -->
     <g transform="translate(42.347923 147.773888) scale(0.1 -0.1)">
      <use xlink:href="#DejaVuSans-31"/>
      <use xlink:href="#DejaVuSans-30" x="63.623047"/>
      <use xlink:href="#DejaVuSans-30" x="127.246094"/>
     </g>
    </g>
   </g>
   <g id="text_12">
    <!-- Accuracy (%) -->
    <g transform="translate(27.082973 180.695349) rotate(-271.754924) scale(0.1 -0.1)">
     <defs>
      <path id="DejaVuSans-63" d="M 3122 3366 
L 3122 2828 
Q 2878 2963 2633 3030 
Q 2388 3097 2138 3097 
Q 1578 3097 1268 2742 
Q 959 2388 959 1747 
Q 959 1106 1268 751 
Q 1578 397 2138 397 
Q 2388 397 2633 464 
Q 2878 531 3122 666 
L 3122 134 
Q 2881 22 2623 -34 
Q 2366 -91 2075 -91 
Q 1284 -91 818 406 
Q 353 903 353 1747 
Q 353 2603 823 3093 
Q 1294 3584 2113 3584 
Q 2378 3584 2631 3529 
Q 2884 3475 3122 3366 
z
" transform="scale(0.015625)"/>
      <path id="DejaVuSans-75" d="M 544 1381 
L 544 3500 
L 1119 3500 
L 1119 1403 
Q 1119 906 1312 657 
Q 1506 409 1894 409 
Q 2359 409 2629 706 
Q 2900 1003 2900 1516 
L 2900 3500 
L 3475 3500 
L 3475 0 
L 2900 0 
L 2900 538 
Q 2691 219 2414 64 
Q 2138 -91 1772 -91 
Q 1169 -91 856 284 
Q 544 659 544 1381 
z
M 1991 3584 
L 1991 3584 
z
" transform="scale(0.015625)"/>
      <path id="DejaVuSans-72" d="M 2631 2963 
Q 2534 3019 2420 3045 
Q 2306 3072 2169 3072 
Q 1681 3072 1420 2755 
Q 1159 2438 1159 1844 
L 1159 0 
L 581 0 
L 581 3500 
L 1159 3500 
L 1159 2956 
Q 1341 3275 1631 3429 
Q 1922 3584 2338 3584 
Q 2397 3584 2469 3576 
Q 2541 3569 2628 3553 
L 2631 2963 
z
" transform="scale(0.015625)"/>
      <path id="DejaVuSans-61" d="M 2194 1759 
Q 1497 1759 1228 1600 
Q 959 1441 959 1056 
Q 959 750 1161 570 
Q 1363 391 1709 391 
Q 2188 391 2477 730 
Q 2766 1069 2766 1631 
L 2766 1759 
L 2194 1759 
z
M 3341 1997 
L 3341 0 
L 2766 0 
L 2766 531 
Q 2569 213 2275 61 
Q 1981 -91 1556 -91 
Q 1019 -91 701 211 
Q 384 513 384 1019 
Q 384 1609 779 1909 
Q 1175 2209 1959 2209 
L 2766 2209 
L 2766 2266 
Q 2766 2663 2505 2880 
Q 2244 3097 1772 3097 
Q 1472 3097 1187 3025 
Q 903 2953 641 2809 
L 641 3341 
Q 956 3463 1253 3523 
Q 1550 3584 1831 3584 
Q 2591 3584 2966 3190 
Q 3341 2797 3341 1997 
z
" transform="scale(0.015625)"/>
      <path id="DejaVuSans-79" d="M 2059 -325 
Q 1816 -950 1584 -1140 
Q 1353 -1331 966 -1331 
L 506 -1331 
L 506 -850 
L 844 -850 
Q 1081 -850 1212 -737 
Q 1344 -625 1503 -206 
L 1606 56 
L 191 3500 
L 800 3500 
L 1894 763 
L 2988 3500 
L 3597 3500 
L 2059 -325 
z
" transform="scale(0.015625)"/>
      <path id="DejaVuSans-20" transform="scale(0.015625)"/>
      <path id="DejaVuSans-28" d="M 1984 4856 
Q 1566 4138 1362 3434 
Q 1159 2731 1159 2009 
Q 1159 1288 1364 580 
Q 1569 -128 1984 -844 
L 1484 -844 
Q 1016 -109 783 600 
Q 550 1309 550 2009 
Q 550 2706 781 3412 
Q 1013 4119 1484 4856 
L 1984 4856 
z
" transform="scale(0.015625)"/>
      <path id="DejaVuSans-25" d="M 4653 2053 
Q 4381 2053 4226 1822 
Q 4072 1591 4072 1178 
Q 4072 772 4226 539 
Q 4381 306 4653 306 
Q 4919 306 5073 539 
Q 5228 772 5228 1178 
Q 5228 1588 5073 1820 
Q 4919 2053 4653 2053 
z
M 4653 2450 
Q 5147 2450 5437 2106 
Q 5728 1763 5728 1178 
Q 5728 594 5436 251 
Q 5144 -91 4653 -91 
Q 4153 -91 3862 251 
Q 3572 594 3572 1178 
Q 3572 1766 3864 2108 
Q 4156 2450 4653 2450 
z
M 1428 4353 
Q 1159 4353 1004 4120 
Q 850 3888 850 3481 
Q 850 3069 1003 2837 
Q 1156 2606 1428 2606 
Q 1700 2606 1854 2837 
Q 2009 3069 2009 3481 
Q 2009 3884 1853 4118 
Q 1697 4353 1428 4353 
z
M 4250 4750 
L 4750 4750 
L 1831 -91 
L 1331 -91 
L 4250 4750 
z
M 1428 4750 
Q 1922 4750 2215 4408 
Q 2509 4066 2509 3481 
Q 2509 2891 2217 2550 
Q 1925 2209 1428 2209 
Q 931 2209 642 2551 
Q 353 2894 353 3481 
Q 353 4063 643 4406 
Q 934 4750 1428 4750 
z
" transform="scale(0.015625)"/>
      <path id="DejaVuSans-29" d="M 513 4856 
L 1013 4856 
Q 1481 4119 1714 3412 
Q 1947 2706 1947 2009 
Q 1947 1309 1714 600 
Q 1481 -109 1013 -844 
L 513 -844 
Q 928 -128 1133 580 
Q 1338 1288 1338 2009 
Q 1338 2731 1133 3434 
Q 928 4138 513 4856 
z
" transform="scale(0.015625)"/>
     </defs>
     <use xlink:href="#DejaVuSans-41"/>
     <use xlink:href="#DejaVuSans-63" x="66.658203"/>
     <use xlink:href="#DejaVuSans-63" x="121.638672"/>
     <use xlink:href="#DejaVuSans-75" x="176.619141"/>
     <use xlink:href="#DejaVuSans-72" x="239.998047"/>
     <use xlink:href="#DejaVuSans-61" x="281.111328"/>
     <use xlink:href="#DejaVuSans-63" x="342.390625"/>
     <use xlink:href="#DejaVuSans-79" x="397.371094"/>
     <use xlink:href="#DejaVuSans-20" x="456.550781"/>
     <use xlink:href="#DejaVuSans-28" x="488.337891"/>
     <use xlink:href="#DejaVuSans-25" x="527.351562"/>
     <use xlink:href="#DejaVuSans-29" x="622.371094"/>
    </g>
   </g>
  </g>
  <g id="axes_1">
   <g id="Poly3DCollection_1">
    <path d="M 225.895135 112.622283 
L 238.478432 116.740198 
L 225.895135 121.590784 
L 213.311416 116.571393 
z
" clip-path="url(#p3d787f679b)" style="fill: #1d5fa2; fill-opacity: 0.7"/>
    <path d="M 213.311416 116.571393 
L 225.895135 121.590784 
L 213.148675 125.963327 
L 200.573333 122.693678 
z
" clip-path="url(#p3d787f679b)" style="fill: #1f63a8; fill-opacity: 0.7"/>
    <path d="M 238.478432 116.740198 
L 251.229751 120.147808 
L 238.63972 126.702807 
L 225.895135 121.590784 
z
" clip-path="url(#p3d787f679b)" style="fill: #1e61a5; fill-opacity: 0.7"/>
    <path d="M 251.229751 120.147808 
L 264.066271 134.936128 
L 251.542216 133.052517 
L 238.63972 126.702807 
z
" clip-path="url(#p3d787f679b)" style="fill: #2870b1; fill-opacity: 0.7"/>
    <path d="M 200.573333 122.693678 
L 213.148675 125.963327 
L 200.243528 132.166462 
L 187.658352 126.304652 
z
" clip-path="url(#p3d787f679b)" style="fill: #2369ad; fill-opacity: 0.7"/>
    <path d="M 225.895135 121.590784 
L 238.63972 126.702807 
L 225.895135 131.823389 
L 213.148675 125.963327 
z
" clip-path="url(#p3d787f679b)" style="fill: #2267ac; fill-opacity: 0.7"/>
    <path d="M 264.066271 134.936128 
L 277.141169 137.763359 
L 264.601807 139.969563 
L 251.542216 133.052517 
z
" clip-path="url(#p3d787f679b)" style="fill: #337eb8; fill-opacity: 0.7"/>
    <path d="M 187.658352 126.304652 
L 200.243528 132.166462 
L 187.180259 138.906953 
L 174.589584 131.937752 
z
" clip-path="url(#p3d787f679b)" style="fill: #276eb0; fill-opacity: 0.7"/>
    <path d="M 238.63972 126.702807 
L 251.542216 133.052517 
L 238.807934 135.860224 
L 225.895135 131.823389 
z
" clip-path="url(#p3d787f679b)" style="fill: #266caf; fill-opacity: 0.7"/>
    <path d="M 213.148675 125.963327 
L 225.895135 131.823389 
L 212.983224 136.205323 
L 200.243528 132.166462 
z
" clip-path="url(#p3d787f679b)" style="fill: #266caf; fill-opacity: 0.7"/>
    <path d="M 174.589584 131.937752 
L 187.180259 138.906953 
L 174.012163 151.266985 
L 161.511589 149.884652 
z
" clip-path="url(#p3d787f679b)" style="fill: #3a87bd; fill-opacity: 0.7"/>
    <path d="M 277.141169 137.763359 
L 290.381143 141.921295 
L 277.832528 146.019786 
L 264.601807 139.969563 
z
" clip-path="url(#p3d787f679b)" style="fill: #3681ba; fill-opacity: 0.7"/>
    <path d="M 200.243528 132.166462 
L 212.983224 136.205323 
L 199.943639 149.336603 
L 187.180259 138.906953 
z
" clip-path="url(#p3d787f679b)" style="fill: #2f79b5; fill-opacity: 0.7"/>
    <path d="M 251.542216 133.052517 
L 264.601807 139.969563 
L 251.877009 143.47873 
L 238.807934 135.860224 
z
" clip-path="url(#p3d787f679b)" style="fill: #2c75b4; fill-opacity: 0.7"/>
    <path d="M 225.895135 131.823389 
L 238.807934 135.860224 
L 225.895135 145.962064 
L 212.983224 136.205323 
z
" clip-path="url(#p3d787f679b)" style="fill: #2b73b3; fill-opacity: 0.7"/>
    <path d="M 161.511589 149.884652 
L 174.012163 151.266985 
L 160.667984 160.60422 
L 148.147665 156.215779 
z
" clip-path="url(#p3d787f679b)" style="fill: #5ca3cb; fill-opacity: 0.7"/>
    <path d="M 187.180259 138.906953 
L 199.943639 149.336603 
L 186.702564 153.423653 
L 174.012163 151.266985 
z
" clip-path="url(#p3d787f679b)" style="fill: #3c8abe; fill-opacity: 0.7"/>
    <path d="M 290.381143 141.921295 
L 303.804368 145.817751 
L 291.160833 157.65342 
L 277.832528 146.019786 
z
" clip-path="url(#p3d787f679b)" style="fill: #3c8abe; fill-opacity: 0.7"/>
    <path d="M 264.601807 139.969563 
L 277.832528 146.019786 
L 265.064312 156.40841 
L 251.877009 143.47873 
z
" clip-path="url(#p3d787f679b)" style="fill: #3885bc; fill-opacity: 0.7"/>
    <path d="M 212.983224 136.205323 
L 225.895135 145.962064 
L 212.830717 153.336665 
L 199.943639 149.336603 
z
" clip-path="url(#p3d787f679b)" style="fill: #3783bb; fill-opacity: 0.7"/>
    <path d="M 238.807934 135.860224 
L 251.877009 143.47873 
L 238.959326 153.423653 
L 225.895135 145.962064 
z
" clip-path="url(#p3d787f679b)" style="fill: #337eb8; fill-opacity: 0.7"/>
    <path d="M 148.147665 156.215779 
L 160.667984 160.60422 
L 147.195367 171.703469 
L 134.633139 163.667046 
z
" clip-path="url(#p3d787f679b)" style="fill: #78b4d5; fill-opacity: 0.7"/>
    <path d="M 174.012163 151.266985 
L 186.702564 153.423653 
L 173.342648 163.539569 
L 160.667984 160.60422 
z
" clip-path="url(#p3d787f679b)" style="fill: #529dc8; fill-opacity: 0.7"/>
    <path d="M 303.804368 145.817751 
L 317.406023 150.057907 
L 304.597195 171.558438 
L 291.160833 157.65342 
z
" clip-path="url(#p3d787f679b)" style="fill: #4c99c6; fill-opacity: 0.7"/>
    <path d="M 277.832528 146.019786 
L 291.160833 157.65342 
L 278.441187 164.150608 
L 265.064312 156.40841 
z
" clip-path="url(#p3d787f679b)" style="fill: #4c99c6; fill-opacity: 0.7"/>
    <path d="M 251.877009 143.47873 
L 265.064312 156.40841 
L 252.181649 161.589065 
L 238.959326 153.423653 
z
" clip-path="url(#p3d787f679b)" style="fill: #408fc1; fill-opacity: 0.7"/>
    <path d="M 199.943639 149.336603 
L 212.830717 153.336665 
L 199.587135 157.508458 
L 186.702564 153.423653 
z
" clip-path="url(#p3d787f679b)" style="fill: #408fc1; fill-opacity: 0.7"/>
    <path d="M 225.895135 145.962064 
L 238.959326 153.423653 
L 225.895135 157.625139 
L 212.830717 153.336665 
z
" clip-path="url(#p3d787f679b)" style="fill: #3e8cbf; fill-opacity: 0.7"/>
    <path d="M 317.406023 150.057907 
L 330.165856 203.148732 
L 318.189994 184.291812 
L 304.597195 171.558438 
z
" clip-path="url(#p3d787f679b)" style="fill: #acd2e5; fill-opacity: 0.7"/>
    <path d="M 134.633139 163.667046 
L 147.195367 171.703469 
L 133.595955 184.059138 
L 121.089637 177.758251 
z
" clip-path="url(#p3d787f679b)" style="fill: #a0cce2; fill-opacity: 0.7"/>
    <path d="M 160.667984 160.60422 
L 173.342648 163.539569 
L 159.927769 181.090624 
L 147.195367 171.703469 
z
" clip-path="url(#p3d787f679b)" style="fill: #84bcd9; fill-opacity: 0.7"/>
    <path d="M 291.160833 157.65342 
L 304.597195 171.558438 
L 291.885301 179.371924 
L 278.441187 164.150608 
z
" clip-path="url(#p3d787f679b)" style="fill: #7eb8d7; fill-opacity: 0.7"/>
    <path d="M 265.064312 156.40841 
L 278.441187 164.150608 
L 265.567788 169.502864 
L 252.181649 161.589065 
z
" clip-path="url(#p3d787f679b)" style="fill: #5ca3cb; fill-opacity: 0.7"/>
    <path d="M 186.702564 153.423653 
L 199.587135 157.508458 
L 186.218523 169.005457 
L 173.342648 163.539569 
z
" clip-path="url(#p3d787f679b)" style="fill: #4f9bc7; fill-opacity: 0.7"/>
    <path d="M 330.165856 203.148732 
L 344.013852 207.161628 
L 331.836522 201.265818 
L 318.189994 184.291812 
z
" clip-path="url(#p3d787f679b)" style="fill: #eff3f5; fill-opacity: 0.7"/>
    <path d="M 238.959326 153.423653 
L 252.181649 161.589065 
L 239.127042 166.604803 
L 225.895135 157.625139 
z
" clip-path="url(#p3d787f679b)" style="fill: #4997c5; fill-opacity: 0.7"/>
    <path d="M 212.830717 153.336665 
L 225.895135 157.625139 
L 212.663617 166.75125 
L 199.587135 157.508458 
z
" clip-path="url(#p3d787f679b)" style="fill: #4393c3; fill-opacity: 0.7"/>
    <path d="M 121.089637 177.758251 
L 133.595955 184.059138 
L 119.914503 199.43118 
L 107.432062 192.74057 
z
" clip-path="url(#p3d787f679b)" style="fill: #cfe4ef; fill-opacity: 0.7"/>
    <path d="M 147.195367 171.703469 
L 159.927769 181.090624 
L 146.274827 191.026922 
L 133.595955 184.059138 
z
" clip-path="url(#p3d787f679b)" style="fill: #aed3e6; fill-opacity: 0.7"/>
    <path d="M 304.597195 171.558438 
L 318.189994 184.291812 
L 305.622512 184.353303 
L 291.885301 179.371924 
z
" clip-path="url(#p3d787f679b)" style="fill: #a5cee3; fill-opacity: 0.7"/>
    <path d="M 173.342648 163.539569 
L 186.218523 169.005457 
L 172.793661 189.038421 
L 159.927769 181.090624 
z
" clip-path="url(#p3d787f679b)" style="fill: #90c4dd; fill-opacity: 0.7"/>
    <path d="M 278.441187 164.150608 
L 291.885301 179.371924 
L 279.084679 180.804306 
L 265.567788 169.502864 
z
" clip-path="url(#p3d787f679b)" style="fill: #84bcd9; fill-opacity: 0.7"/>
    <path d="M 344.013852 207.161628 
L 358.063945 210.911668 
L 345.634105 217.106648 
L 331.836522 201.265818 
z
" clip-path="url(#p3d787f679b)" style="fill: #f8f1ed; fill-opacity: 0.7"/>
    <path d="M 252.181649 161.589065 
L 265.567788 169.502864 
L 252.476572 183.297932 
L 239.127042 166.604803 
z
" clip-path="url(#p3d787f679b)" style="fill: #6eaed2; fill-opacity: 0.7"/>
    <path d="M 225.895135 157.625139 
L 239.127042 166.604803 
L 225.895135 186.404129 
L 212.663617 166.75125 
z
" clip-path="url(#p3d787f679b)" style="fill: #6bacd1; fill-opacity: 0.7"/>
    <path d="M 199.587135 157.508458 
L 212.663617 166.75125 
L 199.310719 182.74075 
L 186.218523 169.005457 
z
" clip-path="url(#p3d787f679b)" style="fill: #68abd0; fill-opacity: 0.7"/>
    <path d="M 107.432062 192.74057 
L 119.914503 199.43118 
L 105.983386 209.983186 
L 93.591274 205.861003 
z
" clip-path="url(#p3d787f679b)" style="fill: #eaf1f5; fill-opacity: 0.7"/>
    <path d="M 133.595955 184.059138 
L 146.274827 191.026922 
L 132.55758 206.120934 
L 119.914503 199.43118 
z
" clip-path="url(#p3d787f679b)" style="fill: #d5e7f1; fill-opacity: 0.7"/>
    <path d="M 318.189994 184.291812 
L 331.836522 201.265818 
L 319.291283 203.015057 
L 305.622512 184.353303 
z
" clip-path="url(#p3d787f679b)" style="fill: #d1e5f0; fill-opacity: 0.7"/>
    <path d="M 159.927769 181.090624 
L 172.793661 189.038421 
L 159.170166 202.018006 
L 146.274827 191.026922 
z
" clip-path="url(#p3d787f679b)" style="fill: #c5dfec; fill-opacity: 0.7"/>
    <path d="M 291.885301 179.371924 
L 305.622512 184.353303 
L 292.649365 199.846565 
L 279.084679 180.804306 
z
" clip-path="url(#p3d787f679b)" style="fill: #aed3e6; fill-opacity: 0.7"/>
    <path d="M 239.127042 166.604803 
L 252.476572 183.297932 
L 239.240208 201.988675 
L 225.895135 186.404129 
z
" clip-path="url(#p3d787f679b)" style="fill: #a7d0e4; fill-opacity: 0.7"/>
    <path d="M 186.218523 169.005457 
L 199.310719 182.74075 
L 185.793882 193.82113 
L 172.793661 189.038421 
z
" clip-path="url(#p3d787f679b)" style="fill: #a2cde3; fill-opacity: 0.7"/>
    <path d="M 265.567788 169.502864 
L 279.084679 180.804306 
L 265.952183 199.288726 
L 252.476572 183.297932 
z
" clip-path="url(#p3d787f679b)" style="fill: #a0cce2; fill-opacity: 0.7"/>
    <path d="M 212.663617 166.75125 
L 225.895135 186.404129 
L 212.535185 196.468247 
L 199.310719 182.74075 
z
" clip-path="url(#p3d787f679b)" style="fill: #a0cce2; fill-opacity: 0.7"/>
    <path d="M 331.836522 201.265818 
L 345.634105 217.106648 
L 332.920984 228.800418 
L 319.291283 203.015057 
z
" clip-path="url(#p3d787f679b)" style="fill: #f8f3f0; fill-opacity: 0.7"/>
    <path d="M 119.914503 199.43118 
L 132.55758 206.120934 
L 118.739481 222.827213 
L 105.983386 209.983186 
z
" clip-path="url(#p3d787f679b)" style="fill: #f3f5f6; fill-opacity: 0.7"/>
    <path d="M 146.274827 191.026922 
L 159.170166 202.018006 
L 145.340178 211.279071 
L 132.55758 206.120934 
z
" clip-path="url(#p3d787f679b)" style="fill: #deebf2; fill-opacity: 0.7"/>
    <path d="M 305.622512 184.353303 
L 319.291283 203.015057 
L 306.336961 218.220312 
L 292.649365 199.846565 
z
" clip-path="url(#p3d787f679b)" style="fill: #dbeaf2; fill-opacity: 0.7"/>
    <path d="M 172.793661 189.038421 
L 185.793882 193.82113 
L 172.164294 208.74478 
L 159.170166 202.018006 
z
" clip-path="url(#p3d787f679b)" style="fill: #d2e6f0; fill-opacity: 0.7"/>
    <path d="M 252.476572 183.297932 
L 265.952183 199.288726 
L 252.767445 207.476659 
L 239.240208 201.988675 
z
" clip-path="url(#p3d787f679b)" style="fill: #d1e5f0; fill-opacity: 0.7"/>
    <path d="M 225.895135 186.404129 
L 239.240208 201.988675 
L 225.895135 206.001282 
L 212.535185 196.468247 
z
" clip-path="url(#p3d787f679b)" style="fill: #d1e5f0; fill-opacity: 0.7"/>
    <path d="M 279.084679 180.804306 
L 292.649365 199.846565 
L 279.641999 207.27016 
L 265.952183 199.288726 
z
" clip-path="url(#p3d787f679b)" style="fill: #cce2ef; fill-opacity: 0.7"/>
    <path d="M 199.310719 182.74075 
L 212.535185 196.468247 
L 199.00037 203.343385 
L 185.793882 193.82113 
z
" clip-path="url(#p3d787f679b)" style="fill: #c0dceb; fill-opacity: 0.7"/>
    <path d="M 319.291283 203.015057 
L 332.920984 228.800418 
L 320.223552 232.396511 
L 306.336961 218.220312 
z
" clip-path="url(#p3d787f679b)" style="fill: #f9ede5; fill-opacity: 0.7"/>
    <path d="M 132.55758 206.120934 
L 145.340178 211.279071 
L 131.502355 229.038513 
L 118.739481 222.827213 
z
" clip-path="url(#p3d787f679b)" style="fill: #f8f3f0; fill-opacity: 0.7"/>
    <path d="M 159.170166 202.018006 
L 172.164294 208.74478 
L 158.387273 222.870266 
L 145.340178 211.279071 
z
" clip-path="url(#p3d787f679b)" style="fill: #eaf1f5; fill-opacity: 0.7"/>
    <path d="M 292.649365 199.846565 
L 306.336961 218.220312 
L 293.493741 216.242144 
L 279.641999 207.27016 
z
" clip-path="url(#p3d787f679b)" style="fill: #e9f0f4; fill-opacity: 0.7"/>
    <path d="M 239.240208 201.988675 
L 252.767445 207.476659 
L 239.412666 217.042014 
L 225.895135 206.001282 
z
" clip-path="url(#p3d787f679b)" style="fill: #e1edf3; fill-opacity: 0.7"/>
    <path d="M 265.952183 199.288726 
L 279.641999 207.27016 
L 266.474023 213.840979 
L 252.767445 207.476659 
z
" clip-path="url(#p3d787f679b)" style="fill: #deebf2; fill-opacity: 0.7"/>
    <path d="M 185.793882 193.82113 
L 199.00037 203.343385 
L 185.353731 218.404158 
L 172.164294 208.74478 
z
" clip-path="url(#p3d787f679b)" style="fill: #dbeaf2; fill-opacity: 0.7"/>
    <path d="M 212.535185 196.468247 
L 225.895135 206.001282 
L 212.371762 214.908451 
L 199.00037 203.343385 
z
" clip-path="url(#p3d787f679b)" style="fill: #dae9f2; fill-opacity: 0.7"/>
    <path d="M 306.336961 218.220312 
L 320.223552 232.396511 
L 307.269552 240.30824 
L 293.493741 216.242144 
z
" clip-path="url(#p3d787f679b)" style="fill: #fae9df; fill-opacity: 0.7"/>
    <path d="M 145.340178 211.279071 
L 158.387273 222.870266 
L 144.51435 239.923693 
L 131.502355 229.038513 
z
" clip-path="url(#p3d787f679b)" style="fill: #f9ebe3; fill-opacity: 0.7"/>
    <path d="M 172.164294 208.74478 
L 185.353731 218.404158 
L 171.564085 232.932194 
L 158.387273 222.870266 
z
" clip-path="url(#p3d787f679b)" style="fill: #f7f5f4; fill-opacity: 0.7"/>
    <path d="M 225.895135 206.001282 
L 239.412666 217.042014 
L 225.895135 226.634711 
L 212.371762 214.908451 
z
" clip-path="url(#p3d787f679b)" style="fill: #ecf2f5; fill-opacity: 0.7"/>
    <path d="M 252.767445 207.476659 
L 266.474023 213.840979 
L 253.100188 225.772009 
L 239.412666 217.042014 
z
" clip-path="url(#p3d787f679b)" style="fill: #ecf2f5; fill-opacity: 0.7"/>
    <path d="M 199.00037 203.343385 
L 212.371762 214.908451 
L 198.687454 225.295907 
L 185.353731 218.404158 
z
" clip-path="url(#p3d787f679b)" style="fill: #eaf1f5; fill-opacity: 0.7"/>
    <path d="M 279.641999 207.27016 
L 293.493741 216.242144 
L 280.321342 224.313654 
L 266.474023 213.840979 
z
" clip-path="url(#p3d787f679b)" style="fill: #e9f0f4; fill-opacity: 0.7"/>
    <path d="M 158.387273 222.870266 
L 171.564085 232.932194 
L 157.581233 243.890152 
L 144.51435 239.923693 
z
" clip-path="url(#p3d787f679b)" style="fill: #fce2d2; fill-opacity: 0.7"/>
    <path d="M 293.493741 216.242144 
L 307.269552 240.30824 
L 294.036305 256.304825 
L 280.321342 224.313654 
z
" clip-path="url(#p3d787f679b)" style="fill: #fbe3d4; fill-opacity: 0.7"/>
    <path d="M 185.353731 218.404158 
L 198.687454 225.295907 
L 184.883664 241.119471 
L 171.564085 232.932194 
z
" clip-path="url(#p3d787f679b)" style="fill: #f9eee7; fill-opacity: 0.7"/>
    <path d="M 239.412666 217.042014 
L 253.100188 225.772009 
L 239.554685 245.05112 
L 225.895135 226.634711 
z
" clip-path="url(#p3d787f679b)" style="fill: #f9efe9; fill-opacity: 0.7"/>
    <path d="M 266.474023 213.840979 
L 280.321342 224.313654 
L 266.874778 244.932072 
L 253.100188 225.772009 
z
" clip-path="url(#p3d787f679b)" style="fill: #f8f2ef; fill-opacity: 0.7"/>
    <path d="M 212.371762 214.908451 
L 225.895135 226.634711 
L 212.221658 240.04611 
L 198.687454 225.295907 
z
" clip-path="url(#p3d787f679b)" style="fill: #f8f3f0; fill-opacity: 0.7"/>
    <path d="M 280.321342 224.313654 
L 294.036305 256.304825 
L 280.747317 265.921012 
L 266.874778 244.932072 
z
" clip-path="url(#p3d787f679b)" style="fill: #fac8af; fill-opacity: 0.7"/>
    <path d="M 253.100188 225.772009 
L 266.874778 244.932072 
L 253.362354 258.591313 
L 239.554685 245.05112 
z
" clip-path="url(#p3d787f679b)" style="fill: #fdd9c4; fill-opacity: 0.7"/>
    <path d="M 171.564085 232.932194 
L 184.883664 241.119471 
L 170.915118 254.529678 
L 157.581233 243.890152 
z
" clip-path="url(#p3d787f679b)" style="fill: #fddbc7; fill-opacity: 0.7"/>
    <path d="M 225.895135 226.634711 
L 239.554685 245.05112 
L 225.895135 254.649234 
L 212.221658 240.04611 
z
" clip-path="url(#p3d787f679b)" style="fill: #fcdecd; fill-opacity: 0.7"/>
    <path d="M 198.687454 225.295907 
L 212.221658 240.04611 
L 198.392878 252.346755 
L 184.883664 241.119471 
z
" clip-path="url(#p3d787f679b)" style="fill: #fce2d2; fill-opacity: 0.7"/>
    <path d="M 266.874778 244.932072 
L 280.747317 265.921012 
L 267.295443 275.239315 
L 253.362354 258.591313 
z
" clip-path="url(#p3d787f679b)" style="fill: #f4a683; fill-opacity: 0.7"/>
    <path d="M 239.554685 245.05112 
L 253.362354 258.591313 
L 239.708437 270.573154 
L 225.895135 254.649234 
z
" clip-path="url(#p3d787f679b)" style="fill: #f7b596; fill-opacity: 0.7"/>
    <path d="M 184.883664 241.119471 
L 198.392878 252.346755 
L 184.417846 266.168019 
L 170.915118 254.529678 
z
" clip-path="url(#p3d787f679b)" style="fill: #f9c4a9; fill-opacity: 0.7"/>
    <path d="M 212.221658 240.04611 
L 225.895135 254.649234 
L 212.063855 264.217634 
L 198.392878 252.346755 
z
" clip-path="url(#p3d787f679b)" style="fill: #fac8af; fill-opacity: 0.7"/>
    <path d="M 253.362354 258.591313 
L 267.295443 275.239315 
L 253.667228 285.456964 
L 239.708437 270.573154 
z
" clip-path="url(#p3d787f679b)" style="fill: #e6866a; fill-opacity: 0.7"/>
    <path d="M 225.895135 254.649234 
L 239.708437 270.573154 
L 225.895135 282.60474 
L 212.063855 264.217634 
z
" clip-path="url(#p3d787f679b)" style="fill: #f09c7b; fill-opacity: 0.7"/>
    <path d="M 198.392878 252.346755 
L 212.063855 264.217634 
L 198.112768 283.655948 
L 184.417846 266.168019 
z
" clip-path="url(#p3d787f679b)" style="fill: #f3a481; fill-opacity: 0.7"/>
    <path d="M 239.708437 270.573154 
L 253.667228 285.456964 
L 239.863611 297.399027 
L 225.895135 282.60474 
z
" clip-path="url(#p3d787f679b)" style="fill: #d86551; fill-opacity: 0.7"/>
    <path d="M 212.063855 264.217634 
L 225.895135 282.60474 
L 211.919641 294.958899 
L 198.112768 283.655948 
z
" clip-path="url(#p3d787f679b)" style="fill: #de735c; fill-opacity: 0.7"/>
    <path d="M 225.895135 282.60474 
L 239.863611 297.399027 
L 225.895135 309.302423 
L 211.919641 294.958899 
z
" clip-path="url(#p3d787f679b)" style="fill: #c6413e; fill-opacity: 0.7"/>
   </g>
   <g id="Poly3DCollection_2">
    <path d="M 225.895135 111.307125 
L 238.482932 114.939036 
L 225.895135 119.581709 
L 213.307338 114.939036 
z
" clip-path="url(#p3d787f679b)" style="fill: #1a5899; fill-opacity: 0.7"/>
    <path d="M 213.307338 114.939036 
L 225.895135 119.581709 
L 213.142398 123.487332 
L 200.55767 119.581709 
z
" clip-path="url(#p3d787f679b)" style="fill: #1b5a9c; fill-opacity: 0.7"/>
    <path d="M 238.482932 114.939036 
L 251.237446 118.619048 
L 238.649316 122.917793 
L 225.895135 119.581709 
z
" clip-path="url(#p3d787f679b)" style="fill: #1a5899; fill-opacity: 0.7"/>
    <path d="M 200.55767 119.581709 
L 213.142398 123.487332 
L 200.215313 126.643014 
L 187.636058 123.373435 
z
" clip-path="url(#p3d787f679b)" style="fill: #1b5a9c; fill-opacity: 0.7"/>
    <path d="M 225.895135 119.581709 
L 238.649316 122.917793 
L 225.895135 126.499758 
L 213.142398 123.487332 
z
" clip-path="url(#p3d787f679b)" style="fill: #1b5a9c; fill-opacity: 0.7"/>
    <path d="M 251.237446 118.619048 
L 264.157244 122.974753 
L 251.571592 127.301886 
L 238.649316 122.917793 
z
" clip-path="url(#p3d787f679b)" style="fill: #1a5899; fill-opacity: 0.7"/>
    <path d="M 187.636058 123.373435 
L 200.215313 126.643014 
L 187.114285 130.361007 
L 174.541051 127.187312 
z
" clip-path="url(#p3d787f679b)" style="fill: #1b5a9c; fill-opacity: 0.7"/>
    <path d="M 264.157244 122.974753 
L 277.253609 126.757613 
L 264.675986 130.361007 
L 251.571592 127.301886 
z
" clip-path="url(#p3d787f679b)" style="fill: #1b5a9c; fill-opacity: 0.7"/>
    <path d="M 238.649316 122.917793 
L 251.571592 127.301886 
L 238.821714 130.505119 
L 225.895135 126.499758 
z
" clip-path="url(#p3d787f679b)" style="fill: #1a5899; fill-opacity: 0.7"/>
    <path d="M 213.142398 123.487332 
L 225.895135 126.499758 
L 212.967072 129.928621 
L 200.215313 126.643014 
z
" clip-path="url(#p3d787f679b)" style="fill: #1a5899; fill-opacity: 0.7"/>
    <path d="M 174.541051 127.187312 
L 187.114285 130.361007 
L 173.845852 135.231442 
L 161.286705 132.406626 
z
" clip-path="url(#p3d787f679b)" style="fill: #1c5c9f; fill-opacity: 0.7"/>
    <path d="M 251.571592 127.301886 
L 264.675986 130.361007 
L 251.922934 134.622673 
L 238.821714 130.505119 
z
" clip-path="url(#p3d787f679b)" style="fill: #1b5a9c; fill-opacity: 0.7"/>
    <path d="M 277.253609 126.757613 
L 290.526919 130.591583 
L 277.952236 134.477706 
L 264.675986 130.361007 
z
" clip-path="url(#p3d787f679b)" style="fill: #1a5899; fill-opacity: 0.7"/>
    <path d="M 225.895135 126.499758 
L 238.821714 130.505119 
L 225.895135 134.477706 
L 212.967072 129.928621 
z
" clip-path="url(#p3d787f679b)" style="fill: #1a5899; fill-opacity: 0.7"/>
    <path d="M 200.215313 126.643014 
L 212.967072 129.928621 
L 199.866134 134.390722 
L 187.114285 130.361007 
z
" clip-path="url(#p3d787f679b)" style="fill: #1a5899; fill-opacity: 0.7"/>
    <path d="M 161.286705 132.406626 
L 173.845852 135.231442 
L 160.388434 139.204516 
L 147.826621 135.579244 
z
" clip-path="url(#p3d787f679b)" style="fill: #1d5fa2; fill-opacity: 0.7"/>
    <path d="M 187.114285 130.361007 
L 199.866134 134.390722 
L 186.588372 138.854564 
L 173.845852 135.231442 
z
" clip-path="url(#p3d787f679b)" style="fill: #1b5a9c; fill-opacity: 0.7"/>
    <path d="M 238.821714 130.505119 
L 251.922934 134.622673 
L 238.996704 139.117033 
L 225.895135 134.477706 
z
" clip-path="url(#p3d787f679b)" style="fill: #1b5a9c; fill-opacity: 0.7"/>
    <path d="M 264.675986 130.361007 
L 277.952236 134.477706 
L 265.200298 139.058709 
L 251.922934 134.622673 
z
" clip-path="url(#p3d787f679b)" style="fill: #1b5a9c; fill-opacity: 0.7"/>
    <path d="M 290.526919 130.591583 
L 303.980786 134.477706 
L 291.405264 138.942056 
L 277.952236 134.477706 
z
" clip-path="url(#p3d787f679b)" style="fill: #1b5a9c; fill-opacity: 0.7"/>
    <path d="M 212.967072 129.928621 
L 225.895135 134.477706 
L 212.791357 138.271201 
L 199.866134 134.390722 
z
" clip-path="url(#p3d787f679b)" style="fill: #1a5899; fill-opacity: 0.7"/>
    <path d="M 147.826621 135.579244 
L 160.388434 139.204516 
L 146.7484 143.408347 
L 134.20335 140.166634 
z
" clip-path="url(#p3d787f679b)" style="fill: #1d5fa2; fill-opacity: 0.7"/>
    <path d="M 173.845852 135.231442 
L 186.588372 138.854564 
L 173.128174 143.173649 
L 160.388434 139.204516 
z
" clip-path="url(#p3d787f679b)" style="fill: #1c5c9f; fill-opacity: 0.7"/>
    <path d="M 251.922934 134.622673 
L 265.200298 139.058709 
L 252.279852 142.938929 
L 238.996704 139.117033 
z
" clip-path="url(#p3d787f679b)" style="fill: #1b5a9c; fill-opacity: 0.7"/>
    <path d="M 303.980786 134.477706 
L 317.618918 138.417054 
L 305.03631 143.760353 
L 291.405264 138.942056 
z
" clip-path="url(#p3d787f679b)" style="fill: #1b5a9c; fill-opacity: 0.7"/>
    <path d="M 277.952236 134.477706 
L 291.405264 138.942056 
L 278.663333 143.056292 
L 265.200298 139.058709 
z
" clip-path="url(#p3d787f679b)" style="fill: #1b5a9c; fill-opacity: 0.7"/>
    <path d="M 225.895135 134.477706 
L 238.996704 139.117033 
L 225.895135 142.792218 
L 212.791357 138.271201 
z
" clip-path="url(#p3d787f679b)" style="fill: #1b5a9c; fill-opacity: 0.7"/>
    <path d="M 199.866134 134.390722 
L 212.791357 138.271201 
L 199.510418 142.938929 
L 186.588372 138.854564 
z
" clip-path="url(#p3d787f679b)" style="fill: #1b5a9c; fill-opacity: 0.7"/>
    <path d="M 134.20335 140.166634 
L 146.7484 143.408347 
L 132.922869 147.817755 
L 120.385924 144.34692 
z
" clip-path="url(#p3d787f679b)" style="fill: #1d5fa2; fill-opacity: 0.7"/>
    <path d="M 317.618918 138.417054 
L 331.412994 143.936338 
L 318.843839 149.086426 
L 305.03631 143.760353 
z
" clip-path="url(#p3d787f679b)" style="fill: #1d5fa2; fill-opacity: 0.7"/>
    <path d="M 291.405264 138.942056 
L 305.03631 143.760353 
L 292.291371 148.761943 
L 278.663333 143.056292 
z
" clip-path="url(#p3d787f679b)" style="fill: #1d5fa2; fill-opacity: 0.7"/>
    <path d="M 160.388434 139.204516 
L 173.128174 143.173649 
L 159.491462 148.201374 
L 146.7484 143.408347 
z
" clip-path="url(#p3d787f679b)" style="fill: #1c5c9f; fill-opacity: 0.7"/>
    <path d="M 265.200298 139.058709 
L 278.663333 143.056292 
L 265.740157 147.847266 
L 252.279852 142.938929 
z
" clip-path="url(#p3d787f679b)" style="fill: #1c5c9f; fill-opacity: 0.7"/>
    <path d="M 238.996704 139.117033 
L 252.279852 142.938929 
L 239.177514 147.581652 
L 225.895135 142.792218 
z
" clip-path="url(#p3d787f679b)" style="fill: #1c5c9f; fill-opacity: 0.7"/>
    <path d="M 186.588372 138.854564 
L 199.510418 142.938929 
L 186.046354 147.375044 
L 173.128174 143.173649 
z
" clip-path="url(#p3d787f679b)" style="fill: #1c5c9f; fill-opacity: 0.7"/>
    <path d="M 212.791357 138.271201 
L 225.895135 142.792218 
L 212.612991 147.670193 
L 199.510418 142.938929 
z
" clip-path="url(#p3d787f679b)" style="fill: #1b5a9c; fill-opacity: 0.7"/>
    <path d="M 305.03631 143.760353 
L 318.843839 149.086426 
L 306.130284 152.703784 
L 292.291371 148.761943 
z
" clip-path="url(#p3d787f679b)" style="fill: #1e61a5; fill-opacity: 0.7"/>
    <path d="M 120.385924 144.34692 
L 132.922869 147.817755 
L 118.918111 152.8522 
L 106.380501 148.702942 
z
" clip-path="url(#p3d787f679b)" style="fill: #1e61a5; fill-opacity: 0.7"/>
    <path d="M 331.412994 143.936338 
L 345.426678 147.994817 
L 332.875969 152.674099 
L 318.843839 149.086426 
z
" clip-path="url(#p3d787f679b)" style="fill: #1e61a5; fill-opacity: 0.7"/>
    <path d="M 278.663333 143.056292 
L 292.291371 148.761943 
L 279.381742 153.030288 
L 265.740157 147.847266 
z
" clip-path="url(#p3d787f679b)" style="fill: #1e61a5; fill-opacity: 0.7"/>
    <path d="M 225.895135 142.792218 
L 239.177514 147.581652 
L 225.895135 154.454535 
L 212.612991 147.670193 
z
" clip-path="url(#p3d787f679b)" style="fill: #1e61a5; fill-opacity: 0.7"/>
    <path d="M 252.279852 142.938929 
L 265.740157 147.847266 
L 252.636058 153.475452 
L 239.177514 147.581652 
z
" clip-path="url(#p3d787f679b)" style="fill: #1d5fa2; fill-opacity: 0.7"/>
    <path d="M 146.7484 143.408347 
L 159.491462 148.201374 
L 145.649507 152.050647 
L 132.922869 147.817755 
z
" clip-path="url(#p3d787f679b)" style="fill: #1d5fa2; fill-opacity: 0.7"/>
    <path d="M 173.128174 143.173649 
L 186.046354 147.375044 
L 172.401861 152.406925 
L 159.491462 148.201374 
z
" clip-path="url(#p3d787f679b)" style="fill: #1d5fa2; fill-opacity: 0.7"/>
    <path d="M 199.510418 142.938929 
L 212.612991 147.670193 
L 199.14945 152.585044 
L 186.046354 147.375044 
z
" clip-path="url(#p3d787f679b)" style="fill: #1d5fa2; fill-opacity: 0.7"/>
    <path d="M 239.177514 147.581652 
L 252.636058 153.475452 
L 239.355499 159.209234 
L 225.895135 154.454535 
z
" clip-path="url(#p3d787f679b)" style="fill: #2065ab; fill-opacity: 0.7"/>
    <path d="M 212.612991 147.670193 
L 225.895135 154.454535 
L 212.432359 158.313866 
L 199.14945 152.585044 
z
" clip-path="url(#p3d787f679b)" style="fill: #1f63a8; fill-opacity: 0.7"/>
    <path d="M 265.740157 147.847266 
L 279.381742 153.030288 
L 266.282741 158.403417 
L 252.636058 153.475452 
z
" clip-path="url(#p3d787f679b)" style="fill: #1f63a8; fill-opacity: 0.7"/>
    <path d="M 292.291371 148.761943 
L 306.130284 152.703784 
L 293.214247 157.925773 
L 279.381742 153.030288 
z
" clip-path="url(#p3d787f679b)" style="fill: #1f63a8; fill-opacity: 0.7"/>
    <path d="M 318.843839 149.086426 
L 332.875969 152.674099 
L 320.144708 157.77649 
L 306.130284 152.703784 
z
" clip-path="url(#p3d787f679b)" style="fill: #1f63a8; fill-opacity: 0.7"/>
    <path d="M 106.380501 148.702942 
L 118.918111 152.8522 
L 104.699005 157.029944 
L 92.169093 152.674099 
z
" clip-path="url(#p3d787f679b)" style="fill: #1f63a8; fill-opacity: 0.7"/>
    <path d="M 132.922869 147.817755 
L 145.649507 152.050647 
L 131.637112 157.32859 
L 118.918111 152.8522 
z
" clip-path="url(#p3d787f679b)" style="fill: #1e61a5; fill-opacity: 0.7"/>
    <path d="M 159.491462 148.201374 
L 172.401861 152.406925 
L 158.564757 157.089676 
L 145.649507 152.050647 
z
" clip-path="url(#p3d787f679b)" style="fill: #1e61a5; fill-opacity: 0.7"/>
    <path d="M 186.046354 147.375044 
L 199.14945 152.585044 
L 185.497632 157.179271 
L 172.401861 152.406925 
z
" clip-path="url(#p3d787f679b)" style="fill: #1e61a5; fill-opacity: 0.7"/>
    <path d="M 345.426678 147.994817 
L 359.63626 152.11003 
L 347.109378 156.283175 
L 332.875969 152.674099 
z
" clip-path="url(#p3d787f679b)" style="fill: #1e61a5; fill-opacity: 0.7"/>
    <path d="M 225.895135 154.454535 
L 239.355499 159.209234 
L 225.895135 164.750564 
L 212.432359 158.313866 
z
" clip-path="url(#p3d787f679b)" style="fill: #246aae; fill-opacity: 0.7"/>
    <path d="M 252.636058 153.475452 
L 266.282741 158.403417 
L 253.006091 163.549853 
L 239.355499 159.209234 
z
" clip-path="url(#p3d787f679b)" style="fill: #2369ad; fill-opacity: 0.7"/>
    <path d="M 279.381742 153.030288 
L 293.214247 157.925773 
L 280.129121 162.43868 
L 266.282741 158.403417 
z
" clip-path="url(#p3d787f679b)" style="fill: #2065ab; fill-opacity: 0.7"/>
    <path d="M 306.130284 152.703784 
L 320.144708 157.77649 
L 307.231918 163.309641 
L 293.214247 157.925773 
z
" clip-path="url(#p3d787f679b)" style="fill: #2065ab; fill-opacity: 0.7"/>
    <path d="M 199.14945 152.585044 
L 212.432359 158.313866 
L 198.784179 163.549853 
L 185.497632 157.179271 
z
" clip-path="url(#p3d787f679b)" style="fill: #2065ab; fill-opacity: 0.7"/>
    <path d="M 332.875969 152.674099 
L 347.109378 156.283175 
L 334.352663 162.919248 
L 320.144708 157.77649 
z
" clip-path="url(#p3d787f679b)" style="fill: #1f63a8; fill-opacity: 0.7"/>
    <path d="M 118.918111 152.8522 
L 131.637112 157.32859 
L 117.420636 162.138279 
L 104.699005 157.029944 
z
" clip-path="url(#p3d787f679b)" style="fill: #1f63a8; fill-opacity: 0.7"/>
    <path d="M 145.649507 152.050647 
L 158.564757 157.089676 
L 144.544646 162.468719 
L 131.637112 157.32859 
z
" clip-path="url(#p3d787f679b)" style="fill: #1f63a8; fill-opacity: 0.7"/>
    <path d="M 172.401861 152.406925 
L 185.497632 157.179271 
L 171.655927 161.95802 
L 158.564757 157.089676 
z
" clip-path="url(#p3d787f679b)" style="fill: #1f63a8; fill-opacity: 0.7"/>
    <path d="M 239.355499 159.209234 
L 253.006091 163.549853 
L 239.543029 169.432201 
L 225.895135 164.750564 
z
" clip-path="url(#p3d787f679b)" style="fill: #266caf; fill-opacity: 0.7"/>
    <path d="M 212.432359 158.313866 
L 225.895135 164.750564 
L 212.246249 169.069846 
L 198.784179 163.549853 
z
" clip-path="url(#p3d787f679b)" style="fill: #266caf; fill-opacity: 0.7"/>
    <path d="M 266.282741 158.403417 
L 280.129121 162.43868 
L 266.852711 167.74076 
L 253.006091 163.549853 
z
" clip-path="url(#p3d787f679b)" style="fill: #2369ad; fill-opacity: 0.7"/>
    <path d="M 293.214247 157.925773 
L 307.231918 163.309641 
L 294.156108 167.861615 
L 280.129121 162.43868 
z
" clip-path="url(#p3d787f679b)" style="fill: #2369ad; fill-opacity: 0.7"/>
    <path d="M 320.144708 157.77649 
L 334.352663 162.919248 
L 321.474397 167.136395 
L 307.231918 163.309641 
z
" clip-path="url(#p3d787f679b)" style="fill: #2369ad; fill-opacity: 0.7"/>
    <path d="M 185.497632 157.179271 
L 198.784179 163.549853 
L 184.939793 168.012676 
L 171.655927 161.95802 
z
" clip-path="url(#p3d787f679b)" style="fill: #2267ac; fill-opacity: 0.7"/>
    <path d="M 131.637112 157.32859 
L 144.544646 162.468719 
L 130.326878 167.710545 
L 117.420636 162.138279 
z
" clip-path="url(#p3d787f679b)" style="fill: #2267ac; fill-opacity: 0.7"/>
    <path d="M 158.564757 157.089676 
L 171.655927 161.95802 
L 157.633749 167.831402 
L 144.544646 162.468719 
z
" clip-path="url(#p3d787f679b)" style="fill: #2267ac; fill-opacity: 0.7"/>
    <path d="M 225.895135 164.750564 
L 239.543029 169.432201 
L 225.895135 175.030901 
L 212.246249 169.069846 
z
" clip-path="url(#p3d787f679b)" style="fill: #2870b1; fill-opacity: 0.7"/>
    <path d="M 253.006091 163.549853 
L 266.852711 167.74076 
L 253.385838 174.028509 
L 239.543029 169.432201 
z
" clip-path="url(#p3d787f679b)" style="fill: #276eb0; fill-opacity: 0.7"/>
    <path d="M 198.784179 163.549853 
L 212.246249 169.069846 
L 198.404768 174.089271 
L 184.939793 168.012676 
z
" clip-path="url(#p3d787f679b)" style="fill: #276eb0; fill-opacity: 0.7"/>
    <path d="M 280.129121 162.43868 
L 294.156108 167.861615 
L 280.874528 174.210792 
L 266.852711 167.74076 
z
" clip-path="url(#p3d787f679b)" style="fill: #246aae; fill-opacity: 0.7"/>
    <path d="M 307.231918 163.309641 
L 321.474397 167.136395 
L 308.386872 172.843343 
L 294.156108 167.861615 
z
" clip-path="url(#p3d787f679b)" style="fill: #246aae; fill-opacity: 0.7"/>
    <path d="M 171.655927 161.95802 
L 184.939793 168.012676 
L 170.902993 173.056106 
L 157.633749 167.831402 
z
" clip-path="url(#p3d787f679b)" style="fill: #246aae; fill-opacity: 0.7"/>
    <path d="M 144.544646 162.468719 
L 157.633749 167.831402 
L 143.401888 172.752153 
L 130.326878 167.710545 
z
" clip-path="url(#p3d787f679b)" style="fill: #246aae; fill-opacity: 0.7"/>
    <path d="M 239.543029 169.432201 
L 253.385838 174.028509 
L 239.734073 180.585642 
L 225.895135 175.030901 
z
" clip-path="url(#p3d787f679b)" style="fill: #2b73b3; fill-opacity: 0.7"/>
    <path d="M 212.246249 169.069846 
L 225.895135 175.030901 
L 212.054156 179.852377 
L 198.404768 174.089271 
z
" clip-path="url(#p3d787f679b)" style="fill: #2a71b2; fill-opacity: 0.7"/>
    <path d="M 294.156108 167.861615 
L 308.386872 172.843343 
L 295.066033 182.295754 
L 280.874528 174.210792 
z
" clip-path="url(#p3d787f679b)" style="fill: #2a71b2; fill-opacity: 0.7"/>
    <path d="M 266.852711 167.74076 
L 280.874528 174.210792 
L 267.41552 180.157931 
L 253.385838 174.028509 
z
" clip-path="url(#p3d787f679b)" style="fill: #2870b1; fill-opacity: 0.7"/>
    <path d="M 184.939793 168.012676 
L 198.404768 174.089271 
L 184.369648 179.546786 
L 170.902993 173.056106 
z
" clip-path="url(#p3d787f679b)" style="fill: #2870b1; fill-opacity: 0.7"/>
    <path d="M 157.633749 167.831402 
L 170.902993 173.056106 
L 156.665574 178.079426 
L 143.401888 172.752153 
z
" clip-path="url(#p3d787f679b)" style="fill: #266caf; fill-opacity: 0.7"/>
    <path d="M 280.874528 174.210792 
L 295.066033 182.295754 
L 281.619684 188.184708 
L 267.41552 180.157931 
z
" clip-path="url(#p3d787f679b)" style="fill: #2f79b5; fill-opacity: 0.7"/>
    <path d="M 253.385838 174.028509 
L 267.41552 180.157931 
L 253.765682 186.710442 
L 239.734073 180.585642 
z
" clip-path="url(#p3d787f679b)" style="fill: #2e77b5; fill-opacity: 0.7"/>
    <path d="M 225.895135 175.030901 
L 239.734073 180.585642 
L 225.895135 185.972981 
L 212.054156 179.852377 
z
" clip-path="url(#p3d787f679b)" style="fill: #2e77b5; fill-opacity: 0.7"/>
    <path d="M 198.404768 174.089271 
L 212.054156 179.852377 
L 198.023382 186.495372 
L 184.369648 179.546786 
z
" clip-path="url(#p3d787f679b)" style="fill: #2c75b4; fill-opacity: 0.7"/>
    <path d="M 170.902993 173.056106 
L 184.369648 179.546786 
L 170.134037 184.92787 
L 156.665574 178.079426 
z
" clip-path="url(#p3d787f679b)" style="fill: #2a71b2; fill-opacity: 0.7"/>
    <path d="M 267.41552 180.157931 
L 281.619684 188.184708 
L 267.982216 194.311207 
L 253.765682 186.710442 
z
" clip-path="url(#p3d787f679b)" style="fill: #337eb8; fill-opacity: 0.7"/>
    <path d="M 239.734073 180.585642 
L 253.765682 186.710442 
L 239.926696 193.415457 
L 225.895135 185.972981 
z
" clip-path="url(#p3d787f679b)" style="fill: #327cb7; fill-opacity: 0.7"/>
    <path d="M 212.054156 179.852377 
L 225.895135 185.972981 
L 211.863749 193.477243 
L 198.023382 186.495372 
z
" clip-path="url(#p3d787f679b)" style="fill: #327cb7; fill-opacity: 0.7"/>
    <path d="M 184.369648 179.546786 
L 198.023382 186.495372 
L 183.790488 192.241226 
L 170.134037 184.92787 
z
" clip-path="url(#p3d787f679b)" style="fill: #307ab6; fill-opacity: 0.7"/>
    <path d="M 253.765682 186.710442 
L 267.982216 194.311207 
L 254.142528 202.139107 
L 239.926696 193.415457 
z
" clip-path="url(#p3d787f679b)" style="fill: #3885bc; fill-opacity: 0.7"/>
    <path d="M 225.895135 185.972981 
L 239.926696 193.415457 
L 225.895135 201.580294 
L 211.863749 193.477243 
z
" clip-path="url(#p3d787f679b)" style="fill: #3783bb; fill-opacity: 0.7"/>
    <path d="M 198.023382 186.495372 
L 211.863749 193.477243 
L 197.642606 201.238735 
L 183.790488 192.241226 
z
" clip-path="url(#p3d787f679b)" style="fill: #3783bb; fill-opacity: 0.7"/>
    <path d="M 239.926696 193.415457 
L 254.142528 202.139107 
L 240.119905 208.294189 
L 225.895135 201.580294 
z
" clip-path="url(#p3d787f679b)" style="fill: #3f8ec0; fill-opacity: 0.7"/>
    <path d="M 211.863749 193.477243 
L 225.895135 201.580294 
L 211.670276 208.262964 
L 197.642606 201.238735 
z
" clip-path="url(#p3d787f679b)" style="fill: #3f8ec0; fill-opacity: 0.7"/>
    <path d="M 225.895135 201.580294 
L 240.119905 208.294189 
L 225.895135 215.166128 
L 211.670276 208.262964 
z
" clip-path="url(#p3d787f679b)" style="fill: #4695c4; fill-opacity: 0.7"/>
   </g>
  </g>
 </g>
 <defs>
  <clipPath id="p3d787f679b">
   <rect x="55.08" y="51.84" width="332.64" height="332.64"/>
  </clipPath>
 </defs>
</svg>
