<?xml version="1.0" encoding="utf-8" standalone="no"?>
<!DOCTYPE svg PUBLIC "-//W3C//DTD SVG 1.1//EN"
  "http://www.w3.org/Graphics/SVG/1.1/DTD/svg11.dtd">
<svg xmlns:xlink="http://www.w3.org/1999/xlink" width="288pt" height="144pt" viewBox="0 0 288 144" xmlns="http://www.w3.org/2000/svg" version="1.1">
 <metadata>
  <rdf:RDF xmlns:dc="http://purl.org/dc/elements/1.1/" xmlns:cc="http://creativecommons.org/ns#" xmlns:rdf="http://www.w3.org/1999/02/22-rdf-syntax-ns#">
   <cc:Work>
    <dc:type rdf:resource="http://purl.org/dc/dcmitype/StillImage"/>
    <dc:date>2025-12-11T15:07:08.893103</dc:date>
    <dc:format>image/svg+xml</dc:format>
    <dc:creator>
     <cc:Agent>
      <dc:title>Matplotlib v3.8.0, https://matplotlib.org/</dc:title>
     </cc:Agent>
    </dc:creator>
   </cc:Work>
  </rdf:RDF>
 </metadata>
 <defs>
  <style type="text/css">*{stroke-linejoin: round; stroke-linecap: butt}</style>
 </defs>
 <g id="figure_1">
  <g id="patch_1">
   <path d="M 0 144 
L 288 144 
L 288 0 
L 0 0 
z
" style="fill: #ffffff"/>
  </g>
  <g id="axes_1">
   <g id="patch_2">
    <path d="M 36 128.16 
L 259.2 128.16 
L 259.2 17.28 
L 36 17.28 
z
" style="fill: #ffffff"/>
   </g>
   <g id="matplotlib.axis_1">
    <g id="xtick_1">
     <g id="line2d_1">
      <defs>
       <path id="mdf7202af42" d="M 0 0 
L 0 3.5 
" style="stroke: #000000; stroke-width: 0.8"/>
      </defs>
      <g>
       <use xlink:href="#mdf7202af42" x="46.121241" y="128.16" style="stroke: #000000; stroke-width: 0.8"/>
      </g>
     </g>
     <g id="text_1">
      <!-- 0 -->
      <g transform="translate(42.939991 142.758438) scale(0.1 -0.1)">
       <defs>
        <path id="DejaVuSans-30" d="M 2034 4250 
Q 1547 4250 1301 3770 
Q 1056 3291 1056 2328 
Q 1056 1369 1301 889 
Q 1547 409 2034 409 
Q 2525 409 2770 889 
Q 3016 1369 3016 2328 
Q 3016 3291 2770 3770 
Q 2525 4250 2034 4250 
z
M 2034 4750 
Q 2819 4750 3233 4129 
Q 3647 3509 3647 2328 
Q 3647 1150 3233 529 
Q 2819 -91 2034 -91 
Q 1250 -91 836 529 
Q 422 1150 422 2328 
Q 422 3509 836 4129 
Q 1250 4750 2034 4750 
z
" transform="scale(0.015625)"/>
       </defs>
       <use xlink:href="#DejaVuSans-30"/>
      </g>
     </g>
    </g>
    <g id="xtick_2">
     <g id="line2d_2">
      <g>
       <use xlink:href="#mdf7202af42" x="99.390931" y="128.16" style="stroke: #000000; stroke-width: 0.8"/>
      </g>
     </g>
     <g id="text_2">
      <!-- 0 -->
      <g transform="translate(96.209681 142.758438) scale(0.1 -0.1)">
       <use xlink:href="#DejaVuSans-30"/>
      </g>
     </g>
    </g>
    <g id="xtick_3">
     <g id="line2d_3">
      <g>
       <use xlink:href="#mdf7202af42" x="152.660621" y="128.16" style="stroke: #000000; stroke-width: 0.8"/>
      </g>
     </g>
     <g id="text_3">
      <!-- 0 -->
      <g transform="translate(149.479371 142.758438) scale(0.1 -0.1)">
       <use xlink:href="#DejaVuSans-30"/>
      </g>
     </g>
    </g>
    <g id="xtick_4">
     <g id="line2d_4">
      <g>
       <use xlink:href="#mdf7202af42" x="205.93031" y="128.16" style="stroke: #000000; stroke-width: 0.8"/>
      </g>
     </g>
     <g id="text_4">
      <!-- 0 -->
      <g transform="translate(202.74906 142.758438) scale(0.1 -0.1)">
       <use xlink:href="#DejaVuSans-30"/>
      </g>
     </g>
    </g>
    <g id="xtick_5">
     <g id="line2d_5">
      <g>
       <use xlink:href="#mdf7202af42" x="259.2" y="128.16" style="stroke: #000000; stroke-width: 0.8"/>
      </g>
     </g>
     <g id="text_5">
      <!-- 0 -->
      <g transform="translate(256.01875 142.758438) scale(0.1 -0.1)">
       <use xlink:href="#DejaVuSans-30"/>
      </g>
     </g>
    </g>
   </g>
   <g id="matplotlib.axis_2">
    <g id="ytick_1">
     <g id="line2d_6">
      <defs>
       <path id="md579ea84f6" d="M 0 0 
L -3.5 0 
" style="stroke: #000000; stroke-width: 0.8"/>
      </defs>
      <g>
       <use xlink:href="#md579ea84f6" x="36" y="124.469495" style="stroke: #000000; stroke-width: 0.8"/>
      </g>
     </g>
     <g id="text_6">
      <!-- 0 -->
      <g style="fill: #75bbd4" transform="translate(22.6375 128.268713) scale(0.1 -0.1)">
       <use xlink:href="#DejaVuSans-30"/>
      </g>
     </g>
    </g>
    <g id="ytick_2">
     <g id="line2d_7">
      <g>
       <use xlink:href="#md579ea84f6" x="36" y="87.528849" style="stroke: #000000; stroke-width: 0.8"/>
      </g>
     </g>
     <g id="text_7">
      <!-- 0 -->
      <g style="fill: #75bbd4" transform="translate(22.6375 91.328068) scale(0.1 -0.1)">
       <use xlink:href="#DejaVuSans-30"/>
      </g>
     </g>
    </g>
    <g id="ytick_3">
     <g id="line2d_8">
      <g>
       <use xlink:href="#md579ea84f6" x="36" y="50.588204" style="stroke: #000000; stroke-width: 0.8"/>
      </g>
     </g>
     <g id="text_8">
      <!-- 0 -->
      <g style="fill: #75bbd4" transform="translate(22.6375 54.387423) scale(0.1 -0.1)">
       <use xlink:href="#DejaVuSans-30"/>
      </g>
     </g>
    </g>
   </g>
   <g id="line2d_9">
    <path d="M 46.121241 73.974228 
L 56.775179 109.878222 
L 67.429117 114.27158 
L 78.083055 116.575183 
L 88.736993 117.827136 
L 99.390931 118.906115 
L 110.044869 119.736847 
L 120.698807 120.315774 
L 131.352745 120.64418 
L 142.006683 121.071001 
L 152.660621 121.517121 
L 163.314558 121.769152 
L 173.968496 122.113536 
L 184.622434 122.28208 
L 195.276372 122.358275 
L 205.93031 122.386236 
L 216.584248 122.593694 
L 227.238186 122.817978 
L 237.892124 123.000026 
L 248.546062 123.12 
" clip-path="url(#p2223119cc6)" style="fill: none; stroke-dasharray: 5.55,2.4; stroke-dashoffset: 0; stroke: #75bbd4; stroke-width: 1.5"/>
    <defs>
     <path id="mb27252683f" d="M 0 1.5 
C 0.397805 1.5 0.77937 1.341951 1.06066 1.06066 
C 1.341951 0.77937 1.5 0.397805 1.5 0 
C 1.5 -0.397805 1.341951 -0.77937 1.06066 -1.06066 
C 0.77937 -1.341951 0.397805 -1.5 0 -1.5 
C -0.397805 -1.5 -0.77937 -1.341951 -1.06066 -1.06066 
C -1.341951 -0.77937 -1.5 -0.397805 -1.5 0 
C -1.5 0.397805 -1.341951 0.77937 -1.06066 1.06066 
C -0.77937 1.341951 -0.397805 1.5 0 1.5 
z
" style="stroke: #75bbd4"/>
    </defs>
    <g clip-path="url(#p2223119cc6)">
     <use xlink:href="#mb27252683f" x="46.121241" y="73.974228" style="fill: #75bbd4; stroke: #75bbd4"/>
     <use xlink:href="#mb27252683f" x="56.775179" y="109.878222" style="fill: #75bbd4; stroke: #75bbd4"/>
     <use xlink:href="#mb27252683f" x="67.429117" y="114.27158" style="fill: #75bbd4; stroke: #75bbd4"/>
     <use xlink:href="#mb27252683f" x="78.083055" y="116.575183" style="fill: #75bbd4; stroke: #75bbd4"/>
     <use xlink:href="#mb27252683f" x="88.736993" y="117.827136" style="fill: #75bbd4; stroke: #75bbd4"/>
     <use xlink:href="#mb27252683f" x="99.390931" y="118.906115" style="fill: #75bbd4; stroke: #75bbd4"/>
     <use xlink:href="#mb27252683f" x="110.044869" y="119.736847" style="fill: #75bbd4; stroke: #75bbd4"/>
     <use xlink:href="#mb27252683f" x="120.698807" y="120.315774" style="fill: #75bbd4; stroke: #75bbd4"/>
     <use xlink:href="#mb27252683f" x="131.352745" y="120.64418" style="fill: #75bbd4; stroke: #75bbd4"/>
     <use xlink:href="#mb27252683f" x="142.006683" y="121.071001" style="fill: #75bbd4; stroke: #75bbd4"/>
     <use xlink:href="#mb27252683f" x="152.660621" y="121.517121" style="fill: #75bbd4; stroke: #75bbd4"/>
     <use xlink:href="#mb27252683f" x="163.314558" y="121.769152" style="fill: #75bbd4; stroke: #75bbd4"/>
     <use xlink:href="#mb27252683f" x="173.968496" y="122.113536" style="fill: #75bbd4; stroke: #75bbd4"/>
     <use xlink:href="#mb27252683f" x="184.622434" y="122.28208" style="fill: #75bbd4; stroke: #75bbd4"/>
     <use xlink:href="#mb27252683f" x="195.276372" y="122.358275" style="fill: #75bbd4; stroke: #75bbd4"/>
     <use xlink:href="#mb27252683f" x="205.93031" y="122.386236" style="fill: #75bbd4; stroke: #75bbd4"/>
     <use xlink:href="#mb27252683f" x="216.584248" y="122.593694" style="fill: #75bbd4; stroke: #75bbd4"/>
     <use xlink:href="#mb27252683f" x="227.238186" y="122.817978" style="fill: #75bbd4; stroke: #75bbd4"/>
     <use xlink:href="#mb27252683f" x="237.892124" y="123.000026" style="fill: #75bbd4; stroke: #75bbd4"/>
     <use xlink:href="#mb27252683f" x="248.546062" y="123.12" style="fill: #75bbd4; stroke: #75bbd4"/>
    </g>
   </g>
   <g id="line2d_10">
    <path d="M 46.121241 22.32 
L 56.775179 103.7035 
L 67.429117 110.294918 
L 78.083055 113.58727 
L 88.736993 115.73434 
L 99.390931 115.715745 
L 110.044869 116.367997 
L 120.698807 116.781191 
L 131.352745 116.507769 
L 142.006683 117.506136 
L 152.660621 117.482525 
L 163.314558 117.58676 
L 173.968496 117.167027 
L 184.622434 116.661031 
L 195.276372 116.826303 
L 205.93031 116.969217 
L 216.584248 117.040499 
L 227.238186 117.186835 
L 237.892124 117.384641 
L 248.546062 117.499749 
" clip-path="url(#p2223119cc6)" style="fill: none; stroke: #75bbd4; stroke-width: 1.5; stroke-linecap: square"/>
    <g clip-path="url(#p2223119cc6)">
     <use xlink:href="#mb27252683f" x="46.121241" y="22.32" style="fill: #75bbd4; stroke: #75bbd4"/>
     <use xlink:href="#mb27252683f" x="56.775179" y="103.7035" style="fill: #75bbd4; stroke: #75bbd4"/>
     <use xlink:href="#mb27252683f" x="67.429117" y="110.294918" style="fill: #75bbd4; stroke: #75bbd4"/>
     <use xlink:href="#mb27252683f" x="78.083055" y="113.58727" style="fill: #75bbd4; stroke: #75bbd4"/>
     <use xlink:href="#mb27252683f" x="88.736993" y="115.73434" style="fill: #75bbd4; stroke: #75bbd4"/>
     <use xlink:href="#mb27252683f" x="99.390931" y="115.715745" style="fill: #75bbd4; stroke: #75bbd4"/>
     <use xlink:href="#mb27252683f" x="110.044869" y="116.367997" style="fill: #75bbd4; stroke: #75bbd4"/>
     <use xlink:href="#mb27252683f" x="120.698807" y="116.781191" style="fill: #75bbd4; stroke: #75bbd4"/>
     <use xlink:href="#mb27252683f" x="131.352745" y="116.507769" style="fill: #75bbd4; stroke: #75bbd4"/>
     <use xlink:href="#mb27252683f" x="142.006683" y="117.506136" style="fill: #75bbd4; stroke: #75bbd4"/>
     <use xlink:href="#mb27252683f" x="152.660621" y="117.482525" style="fill: #75bbd4; stroke: #75bbd4"/>
     <use xlink:href="#mb27252683f" x="163.314558" y="117.58676" style="fill: #75bbd4; stroke: #75bbd4"/>
     <use xlink:href="#mb27252683f" x="173.968496" y="117.167027" style="fill: #75bbd4; stroke: #75bbd4"/>
     <use xlink:href="#mb27252683f" x="184.622434" y="116.661031" style="fill: #75bbd4; stroke: #75bbd4"/>
     <use xlink:href="#mb27252683f" x="195.276372" y="116.826303" style="fill: #75bbd4; stroke: #75bbd4"/>
     <use xlink:href="#mb27252683f" x="205.93031" y="116.969217" style="fill: #75bbd4; stroke: #75bbd4"/>
     <use xlink:href="#mb27252683f" x="216.584248" y="117.040499" style="fill: #75bbd4; stroke: #75bbd4"/>
     <use xlink:href="#mb27252683f" x="227.238186" y="117.186835" style="fill: #75bbd4; stroke: #75bbd4"/>
     <use xlink:href="#mb27252683f" x="237.892124" y="117.384641" style="fill: #75bbd4; stroke: #75bbd4"/>
     <use xlink:href="#mb27252683f" x="248.546062" y="117.499749" style="fill: #75bbd4; stroke: #75bbd4"/>
    </g>
   </g>
   <g id="patch_3">
    <path d="M 36 128.16 
L 36 17.28 
" style="fill: none; stroke: #000000; stroke-width: 0.8; stroke-linejoin: miter; stroke-linecap: square"/>
   </g>
   <g id="patch_4">
    <path d="M 259.2 128.16 
L 259.2 17.28 
" style="fill: none; stroke: #000000; stroke-width: 0.8; stroke-linejoin: miter; stroke-linecap: square"/>
   </g>
   <g id="patch_5">
    <path d="M 36 128.16 
L 259.2 128.16 
" style="fill: none; stroke: #000000; stroke-width: 0.8; stroke-linejoin: miter; stroke-linecap: square"/>
   </g>
   <g id="patch_6">
    <path d="M 36 17.28 
L 259.2 17.28 
" style="fill: none; stroke: #000000; stroke-width: 0.8; stroke-linejoin: miter; stroke-linecap: square"/>
   </g>
  </g>
  <g id="axes_2">
   <g id="matplotlib.axis_3">
    <g id="ytick_4">
     <g id="line2d_11">
      <defs>
       <path id="mc92196cfe0" d="M 0 0 
L 3.5 0 
" style="stroke: #000000; stroke-width: 0.8"/>
      </defs>
      <g>
       <use xlink:href="#mc92196cfe0" x="259.2" y="128.16" style="stroke: #000000; stroke-width: 0.8"/>
      </g>
     </g>
     <g id="text_9">
      <!-- 0 -->
      <g style="fill: #ed8c48" transform="translate(266.2 131.959219) scale(0.1 -0.1)">
       <use xlink:href="#DejaVuSans-30"/>
      </g>
     </g>
    </g>
    <g id="ytick_5">
     <g id="line2d_12">
      <g>
       <use xlink:href="#mc92196cfe0" x="259.2" y="92.85914" style="stroke: #000000; stroke-width: 0.8"/>
      </g>
     </g>
     <g id="text_10">
      <!-- 0 -->
      <g style="fill: #ed8c48" transform="translate(266.2 96.658359) scale(0.1 -0.1)">
       <use xlink:href="#DejaVuSans-30"/>
      </g>
     </g>
    </g>
    <g id="ytick_6">
     <g id="line2d_13">
      <g>
       <use xlink:href="#mc92196cfe0" x="259.2" y="57.558281" style="stroke: #000000; stroke-width: 0.8"/>
      </g>
     </g>
     <g id="text_11">
      <!-- 0 -->
      <g style="fill: #ed8c48" transform="translate(266.2 61.3575) scale(0.1 -0.1)">
       <use xlink:href="#DejaVuSans-30"/>
      </g>
     </g>
    </g>
    <g id="ytick_7">
     <g id="line2d_14">
      <g>
       <use xlink:href="#mc92196cfe0" x="259.2" y="22.257421" style="stroke: #000000; stroke-width: 0.8"/>
      </g>
     </g>
     <g id="text_12">
      <!-- 0 -->
      <g style="fill: #ed8c48" transform="translate(266.2 26.05664) scale(0.1 -0.1)">
       <use xlink:href="#DejaVuSans-30"/>
      </g>
     </g>
    </g>
   </g>
   <g id="line2d_15">
    <path d="M 46.121241 61.794384 
L 56.775179 47.321032 
L 67.429117 32.847679 
L 78.083055 36.377765 
L 88.736993 28.258567 
L 99.390931 28.258567 
L 110.044869 27.199542 
L 120.698807 26.846533 
L 131.352745 27.199542 
L 142.006683 26.846533 
L 152.660621 21.904413 
L 163.314558 25.434499 
L 173.968496 24.728481 
L 184.622434 23.669456 
L 195.276372 27.55255 
L 205.93031 27.55255 
L 216.584248 25.08149 
L 227.238186 24.728481 
L 237.892124 28.611576 
L 248.546062 24.728481 
" clip-path="url(#p2223119cc6)" style="fill: none; stroke-dasharray: 5.55,2.4; stroke-dashoffset: 0; stroke: #ed8c48; stroke-width: 1.5"/>
    <defs>
     <path id="mdeab64f414" d="M 0 1.5 
C 0.397805 1.5 0.77937 1.341951 1.06066 1.06066 
C 1.341951 0.77937 1.5 0.397805 1.5 0 
C 1.5 -0.397805 1.341951 -0.77937 1.06066 -1.06066 
C 0.77937 -1.341951 0.397805 -1.5 0 -1.5 
C -0.397805 -1.5 -0.77937 -1.341951 -1.06066 -1.06066 
C -1.341951 -0.77937 -1.5 -0.397805 -1.5 0 
C -1.5 0.397805 -1.341951 0.77937 -1.06066 1.06066 
C -0.77937 1.341951 -0.397805 1.5 0 1.5 
z
" style="stroke: #ed8c48"/>
    </defs>
    <g clip-path="url(#p2223119cc6)">
     <use xlink:href="#mdeab64f414" x="46.121241" y="61.794384" style="fill: #ed8c48; stroke: #ed8c48"/>
     <use xlink:href="#mdeab64f414" x="56.775179" y="47.321032" style="fill: #ed8c48; stroke: #ed8c48"/>
     <use xlink:href="#mdeab64f414" x="67.429117" y="32.847679" style="fill: #ed8c48; stroke: #ed8c48"/>
     <use xlink:href="#mdeab64f414" x="78.083055" y="36.377765" style="fill: #ed8c48; stroke: #ed8c48"/>
     <use xlink:href="#mdeab64f414" x="88.736993" y="28.258567" style="fill: #ed8c48; stroke: #ed8c48"/>
     <use xlink:href="#mdeab64f414" x="99.390931" y="28.258567" style="fill: #ed8c48; stroke: #ed8c48"/>
     <use xlink:href="#mdeab64f414" x="110.044869" y="27.199542" style="fill: #ed8c48; stroke: #ed8c48"/>
     <use xlink:href="#mdeab64f414" x="120.698807" y="26.846533" style="fill: #ed8c48; stroke: #ed8c48"/>
     <use xlink:href="#mdeab64f414" x="131.352745" y="27.199542" style="fill: #ed8c48; stroke: #ed8c48"/>
     <use xlink:href="#mdeab64f414" x="142.006683" y="26.846533" style="fill: #ed8c48; stroke: #ed8c48"/>
     <use xlink:href="#mdeab64f414" x="152.660621" y="21.904413" style="fill: #ed8c48; stroke: #ed8c48"/>
     <use xlink:href="#mdeab64f414" x="163.314558" y="25.434499" style="fill: #ed8c48; stroke: #ed8c48"/>
     <use xlink:href="#mdeab64f414" x="173.968496" y="24.728481" style="fill: #ed8c48; stroke: #ed8c48"/>
     <use xlink:href="#mdeab64f414" x="184.622434" y="23.669456" style="fill: #ed8c48; stroke: #ed8c48"/>
     <use xlink:href="#mdeab64f414" x="195.276372" y="27.55255" style="fill: #ed8c48; stroke: #ed8c48"/>
     <use xlink:href="#mdeab64f414" x="205.93031" y="27.55255" style="fill: #ed8c48; stroke: #ed8c48"/>
     <use xlink:href="#mdeab64f414" x="216.584248" y="25.08149" style="fill: #ed8c48; stroke: #ed8c48"/>
     <use xlink:href="#mdeab64f414" x="227.238186" y="24.728481" style="fill: #ed8c48; stroke: #ed8c48"/>
     <use xlink:href="#mdeab64f414" x="237.892124" y="28.611576" style="fill: #ed8c48; stroke: #ed8c48"/>
     <use xlink:href="#mdeab64f414" x="248.546062" y="24.728481" style="fill: #ed8c48; stroke: #ed8c48"/>
    </g>
   </g>
   <g id="line2d_16">
    <path d="M 46.121241 114.392665 
L 56.775179 64.265444 
L 67.429117 49.086074 
L 78.083055 41.672894 
L 88.736993 34.259713 
L 99.390931 32.847679 
L 110.044869 30.729628 
L 120.698807 28.258567 
L 131.352745 30.376619 
L 142.006683 27.905559 
L 152.660621 24.022464 
L 163.314558 27.55255 
L 173.968496 30.376619 
L 184.622434 28.964585 
L 195.276372 33.553696 
L 205.93031 27.199542 
L 216.584248 30.376619 
L 227.238186 29.670602 
L 237.892124 28.258567 
L 248.546062 30.02361 
" clip-path="url(#p2223119cc6)" style="fill: none; stroke: #ed8c48; stroke-width: 1.5; stroke-linecap: square"/>
    <g clip-path="url(#p2223119cc6)">
     <use xlink:href="#mdeab64f414" x="46.121241" y="114.392665" style="fill: #ed8c48; stroke: #ed8c48"/>
     <use xlink:href="#mdeab64f414" x="56.775179" y="64.265444" style="fill: #ed8c48; stroke: #ed8c48"/>
     <use xlink:href="#mdeab64f414" x="67.429117" y="49.086074" style="fill: #ed8c48; stroke: #ed8c48"/>
     <use xlink:href="#mdeab64f414" x="78.083055" y="41.672894" style="fill: #ed8c48; stroke: #ed8c48"/>
     <use xlink:href="#mdeab64f414" x="88.736993" y="34.259713" style="fill: #ed8c48; stroke: #ed8c48"/>
     <use xlink:href="#mdeab64f414" x="99.390931" y="32.847679" style="fill: #ed8c48; stroke: #ed8c48"/>
     <use xlink:href="#mdeab64f414" x="110.044869" y="30.729628" style="fill: #ed8c48; stroke: #ed8c48"/>
     <use xlink:href="#mdeab64f414" x="120.698807" y="28.258567" style="fill: #ed8c48; stroke: #ed8c48"/>
     <use xlink:href="#mdeab64f414" x="131.352745" y="30.376619" style="fill: #ed8c48; stroke: #ed8c48"/>
     <use xlink:href="#mdeab64f414" x="142.006683" y="27.905559" style="fill: #ed8c48; stroke: #ed8c48"/>
     <use xlink:href="#mdeab64f414" x="152.660621" y="24.022464" style="fill: #ed8c48; stroke: #ed8c48"/>
     <use xlink:href="#mdeab64f414" x="163.314558" y="27.55255" style="fill: #ed8c48; stroke: #ed8c48"/>
     <use xlink:href="#mdeab64f414" x="173.968496" y="30.376619" style="fill: #ed8c48; stroke: #ed8c48"/>
     <use xlink:href="#mdeab64f414" x="184.622434" y="28.964585" style="fill: #ed8c48; stroke: #ed8c48"/>
     <use xlink:href="#mdeab64f414" x="195.276372" y="33.553696" style="fill: #ed8c48; stroke: #ed8c48"/>
     <use xlink:href="#mdeab64f414" x="205.93031" y="27.199542" style="fill: #ed8c48; stroke: #ed8c48"/>
     <use xlink:href="#mdeab64f414" x="216.584248" y="30.376619" style="fill: #ed8c48; stroke: #ed8c48"/>
     <use xlink:href="#mdeab64f414" x="227.238186" y="29.670602" style="fill: #ed8c48; stroke: #ed8c48"/>
     <use xlink:href="#mdeab64f414" x="237.892124" y="28.258567" style="fill: #ed8c48; stroke: #ed8c48"/>
     <use xlink:href="#mdeab64f414" x="248.546062" y="30.02361" style="fill: #ed8c48; stroke: #ed8c48"/>
    </g>
   </g>
   <g id="patch_7">
    <path d="M 36 128.16 
L 36 17.28 
" style="fill: none; stroke: #000000; stroke-width: 0.8; stroke-linejoin: miter; stroke-linecap: square"/>
   </g>
   <g id="patch_8">
    <path d="M 259.2 128.16 
L 259.2 17.28 
" style="fill: none; stroke: #000000; stroke-width: 0.8; stroke-linejoin: miter; stroke-linecap: square"/>
   </g>
   <g id="patch_9">
    <path d="M 36 128.16 
L 259.2 128.16 
" style="fill: none; stroke: #000000; stroke-width: 0.8; stroke-linejoin: miter; stroke-linecap: square"/>
   </g>
   <g id="patch_10">
    <path d="M 36 17.28 
L 259.2 17.28 
" style="fill: none; stroke: #000000; stroke-width: 0.8; stroke-linejoin: miter; stroke-linecap: square"/>
   </g>
  </g>
 </g>
 <defs>
  <clipPath id="p2223119cc6">
   <rect x="36" y="17.28" width="223.2" height="110.88"/>
  </clipPath>
 </defs>
</svg>
