<?xml version="1.0" encoding="utf-8" standalone="no"?>
<!DOCTYPE svg PUBLIC "-//W3C//DTD SVG 1.1//EN"
  "http://www.w3.org/Graphics/SVG/1.1/DTD/svg11.dtd">
<svg xmlns:xlink="http://www.w3.org/1999/xlink" width="288pt" height="144pt" viewBox="0 0 288 144" xmlns="http://www.w3.org/2000/svg" version="1.1">
 <metadata>
  <rdf:RDF xmlns:dc="http://purl.org/dc/elements/1.1/" xmlns:cc="http://creativecommons.org/ns#" xmlns:rdf="http://www.w3.org/1999/02/22-rdf-syntax-ns#">
   <cc:Work>
    <dc:type rdf:resource="http://purl.org/dc/dcmitype/StillImage"/>
    <dc:date>2025-12-11T15:19:26.384178</dc:date>
    <dc:format>image/svg+xml</dc:format>
    <dc:creator>
     <cc:Agent>
      <dc:title>Matplotlib v3.8.0, https://matplotlib.org/</dc:title>
     </cc:Agent>
    </dc:creator>
   </cc:Work>
  </rdf:RDF>
 </metadata>
 <defs>
  <style type="text/css">*{stroke-linejoin: round; stroke-linecap: butt}</style>
 </defs>
 <g id="figure_1">
  <g id="patch_1">
   <path d="M 0 144 
L 288 144 
L 288 0 
L 0 0 
z
" style="fill: #ffffff"/>
  </g>
  <g id="axes_1">
   <g id="patch_2">
    <path d="M 36 128.16 
L 259.2 128.16 
L 259.2 17.28 
L 36 17.28 
z
" style="fill: #ffffff"/>
   </g>
   <g id="matplotlib.axis_1">
    <g id="xtick_1">
     <g id="line2d_1">
      <defs>
       <path id="m5423452890" d="M 0 0 
L 0 3.5 
" style="stroke: #000000; stroke-width: 0.8"/>
      </defs>
      <g>
       <use xlink:href="#m5423452890" x="46.145455" y="128.16" style="stroke: #000000; stroke-width: 0.8"/>
      </g>
     </g>
     <g id="text_1">
      <!-- 0 -->
      <g transform="translate(42.964205 142.758438) scale(0.1 -0.1)">
       <defs>
        <path id="DejaVuSans-30" d="M 2034 4250 
Q 1547 4250 1301 3770 
Q 1056 3291 1056 2328 
Q 1056 1369 1301 889 
Q 1547 409 2034 409 
Q 2525 409 2770 889 
Q 3016 1369 3016 2328 
Q 3016 3291 2770 3770 
Q 2525 4250 2034 4250 
z
M 2034 4750 
Q 2819 4750 3233 4129 
Q 3647 3509 3647 2328 
Q 3647 1150 3233 529 
Q 2819 -91 2034 -91 
Q 1250 -91 836 529 
Q 422 1150 422 2328 
Q 422 3509 836 4129 
Q 1250 4750 2034 4750 
z
" transform="scale(0.015625)"/>
       </defs>
       <use xlink:href="#DejaVuSans-30"/>
      </g>
     </g>
    </g>
    <g id="xtick_2">
     <g id="line2d_2">
      <g>
       <use xlink:href="#m5423452890" x="147.6" y="128.16" style="stroke: #000000; stroke-width: 0.8"/>
      </g>
     </g>
     <g id="text_2">
      <!-- 0 -->
      <g transform="translate(144.41875 142.758438) scale(0.1 -0.1)">
       <use xlink:href="#DejaVuSans-30"/>
      </g>
     </g>
    </g>
    <g id="xtick_3">
     <g id="line2d_3">
      <g>
       <use xlink:href="#m5423452890" x="249.054545" y="128.16" style="stroke: #000000; stroke-width: 0.8"/>
      </g>
     </g>
     <g id="text_3">
      <!-- 0 -->
      <g transform="translate(245.873295 142.758438) scale(0.1 -0.1)">
       <use xlink:href="#DejaVuSans-30"/>
      </g>
     </g>
    </g>
   </g>
   <g id="matplotlib.axis_2">
    <g id="ytick_1">
     <g id="line2d_4">
      <defs>
       <path id="md033f2e5cb" d="M 0 0 
L -3.5 0 
" style="stroke: #000000; stroke-width: 0.8"/>
      </defs>
      <g>
       <use xlink:href="#md033f2e5cb" x="36" y="128.16" style="stroke: #000000; stroke-width: 0.8"/>
      </g>
     </g>
     <g id="text_4">
      <!-- 0 -->
      <g transform="translate(22.6375 131.959219) scale(0.1 -0.1)">
       <use xlink:href="#DejaVuSans-30"/>
      </g>
     </g>
    </g>
    <g id="ytick_2">
     <g id="line2d_5">
      <g>
       <use xlink:href="#md033f2e5cb" x="36" y="77.344235" style="stroke: #000000; stroke-width: 0.8"/>
      </g>
     </g>
     <g id="text_5">
      <!-- 0 -->
      <g transform="translate(22.6375 81.143453) scale(0.1 -0.1)">
       <use xlink:href="#DejaVuSans-30"/>
      </g>
     </g>
    </g>
    <g id="ytick_3">
     <g id="line2d_6">
      <g>
       <use xlink:href="#md033f2e5cb" x="36" y="26.528469" style="stroke: #000000; stroke-width: 0.8"/>
      </g>
     </g>
     <g id="text_6">
      <!-- 0 -->
      <g transform="translate(22.6375 30.327688) scale(0.1 -0.1)">
       <use xlink:href="#DejaVuSans-30"/>
      </g>
     </g>
    </g>
   </g>
   <g id="line2d_7">
    <path d="M 46.145455 114.744638 
L 66.436364 114.541375 
L 86.727273 114.439743 
L 107.018182 114.617599 
L 127.309091 114.757342 
L 147.6 23.009478 
L 167.890909 115.608506 
L 188.181818 115.722841 
L 208.472727 115.379835 
L 228.763636 115.443355 
L 249.054545 115.55769 
" clip-path="url(#p18958d83f9)" style="fill: none; stroke: #ed8c48; stroke-width: 1.5; stroke-linecap: square"/>
    <defs>
     <path id="ma53691306e" d="M 0 1.5 
C 0.397805 1.5 0.77937 1.341951 1.06066 1.06066 
C 1.341951 0.77937 1.5 0.397805 1.5 0 
C 1.5 -0.397805 1.341951 -0.77937 1.06066 -1.06066 
C 0.77937 -1.341951 0.397805 -1.5 0 -1.5 
C -0.397805 -1.5 -0.77937 -1.341951 -1.06066 -1.06066 
C -1.341951 -0.77937 -1.5 -0.397805 -1.5 0 
C -1.5 0.397805 -1.341951 0.77937 -1.06066 1.06066 
C -0.77937 1.341951 -0.397805 1.5 0 1.5 
z
" style="stroke: #ed8c48"/>
    </defs>
    <g clip-path="url(#p18958d83f9)">
     <use xlink:href="#ma53691306e" x="46.145455" y="114.744638" style="fill: #ed8c48; stroke: #ed8c48"/>
     <use xlink:href="#ma53691306e" x="66.436364" y="114.541375" style="fill: #ed8c48; stroke: #ed8c48"/>
     <use xlink:href="#ma53691306e" x="86.727273" y="114.439743" style="fill: #ed8c48; stroke: #ed8c48"/>
     <use xlink:href="#ma53691306e" x="107.018182" y="114.617599" style="fill: #ed8c48; stroke: #ed8c48"/>
     <use xlink:href="#ma53691306e" x="127.309091" y="114.757342" style="fill: #ed8c48; stroke: #ed8c48"/>
     <use xlink:href="#ma53691306e" x="147.6" y="23.009478" style="fill: #ed8c48; stroke: #ed8c48"/>
     <use xlink:href="#ma53691306e" x="167.890909" y="115.608506" style="fill: #ed8c48; stroke: #ed8c48"/>
     <use xlink:href="#ma53691306e" x="188.181818" y="115.722841" style="fill: #ed8c48; stroke: #ed8c48"/>
     <use xlink:href="#ma53691306e" x="208.472727" y="115.379835" style="fill: #ed8c48; stroke: #ed8c48"/>
     <use xlink:href="#ma53691306e" x="228.763636" y="115.443355" style="fill: #ed8c48; stroke: #ed8c48"/>
     <use xlink:href="#ma53691306e" x="249.054545" y="115.55769" style="fill: #ed8c48; stroke: #ed8c48"/>
    </g>
   </g>
   <g id="line2d_8">
    <path d="M 46.145455 22.209129 
L 66.436364 22.386984 
L 86.727273 23.225445 
L 107.018182 22.704583 
L 127.309091 22.158313 
L 147.6 22.272649 
L 167.890909 21.967754 
L 188.181818 23.085701 
L 208.472727 24.584766 
L 228.763636 26.807956 
L 249.054545 30.047461 
" clip-path="url(#p18958d83f9)" style="fill: none; stroke: #75bbd4; stroke-width: 1.5; stroke-linecap: square"/>
    <defs>
     <path id="md4e62ac138" d="M 0 1.5 
C 0.397805 1.5 0.77937 1.341951 1.06066 1.06066 
C 1.341951 0.77937 1.5 0.397805 1.5 0 
C 1.5 -0.397805 1.341951 -0.77937 1.06066 -1.06066 
C 0.77937 -1.341951 0.397805 -1.5 0 -1.5 
C -0.397805 -1.5 -0.77937 -1.341951 -1.06066 -1.06066 
C -1.341951 -0.77937 -1.5 -0.397805 -1.5 0 
C -1.5 0.397805 -1.341951 0.77937 -1.06066 1.06066 
C -0.77937 1.341951 -0.397805 1.5 0 1.5 
z
" style="stroke: #75bbd4"/>
    </defs>
    <g clip-path="url(#p18958d83f9)">
     <use xlink:href="#md4e62ac138" x="46.145455" y="22.209129" style="fill: #75bbd4; stroke: #75bbd4"/>
     <use xlink:href="#md4e62ac138" x="66.436364" y="22.386984" style="fill: #75bbd4; stroke: #75bbd4"/>
     <use xlink:href="#md4e62ac138" x="86.727273" y="23.225445" style="fill: #75bbd4; stroke: #75bbd4"/>
     <use xlink:href="#md4e62ac138" x="107.018182" y="22.704583" style="fill: #75bbd4; stroke: #75bbd4"/>
     <use xlink:href="#md4e62ac138" x="127.309091" y="22.158313" style="fill: #75bbd4; stroke: #75bbd4"/>
     <use xlink:href="#md4e62ac138" x="147.6" y="22.272649" style="fill: #75bbd4; stroke: #75bbd4"/>
     <use xlink:href="#md4e62ac138" x="167.890909" y="21.967754" style="fill: #75bbd4; stroke: #75bbd4"/>
     <use xlink:href="#md4e62ac138" x="188.181818" y="23.085701" style="fill: #75bbd4; stroke: #75bbd4"/>
     <use xlink:href="#md4e62ac138" x="208.472727" y="24.584766" style="fill: #75bbd4; stroke: #75bbd4"/>
     <use xlink:href="#md4e62ac138" x="228.763636" y="26.807956" style="fill: #75bbd4; stroke: #75bbd4"/>
     <use xlink:href="#md4e62ac138" x="249.054545" y="30.047461" style="fill: #75bbd4; stroke: #75bbd4"/>
    </g>
   </g>
   <g id="patch_3">
    <path d="M 36 128.16 
L 36 17.28 
" style="fill: none; stroke: #000000; stroke-width: 0.8; stroke-linejoin: miter; stroke-linecap: square"/>
   </g>
   <g id="patch_4">
    <path d="M 259.2 128.16 
L 259.2 17.28 
" style="fill: none; stroke: #000000; stroke-width: 0.8; stroke-linejoin: miter; stroke-linecap: square"/>
   </g>
   <g id="patch_5">
    <path d="M 36 128.16 
L 259.2 128.16 
" style="fill: none; stroke: #000000; stroke-width: 0.8; stroke-linejoin: miter; stroke-linecap: square"/>
   </g>
   <g id="patch_6">
    <path d="M 36 17.28 
L 259.2 17.28 
" style="fill: none; stroke: #000000; stroke-width: 0.8; stroke-linejoin: miter; stroke-linecap: square"/>
   </g>
  </g>
 </g>
 <defs>
  <clipPath id="p18958d83f9">
   <rect x="36" y="17.28" width="223.2" height="110.88"/>
  </clipPath>
 </defs>
</svg>
